<?xml version="1.0" encoding="UTF-8" standalone="no"?>
<!-- Generator: Adobe Illustrator 21.0.0, SVG Export Plug-In . SVG Version: 6.00 Build 0)  -->

<svg
   xmlns:dc="http://purl.org/dc/elements/1.1/"
   xmlns:cc="http://creativecommons.org/ns#"
   xmlns:rdf="http://www.w3.org/1999/02/22-rdf-syntax-ns#"
   xmlns:svg="http://www.w3.org/2000/svg"
   xmlns="http://www.w3.org/2000/svg"
   xmlns:sodipodi="http://sodipodi.sourceforge.net/DTD/sodipodi-0.dtd"
   xmlns:inkscape="http://www.inkscape.org/namespaces/inkscape"
   version="1.1"
   id="Слой_1"
   x="0px"
   y="0px"
   viewBox="0 0 67.433752 78.272745"
   style="image-rendering:optimizeQuality;shape-rendering:geometricPrecision;text-rendering:geometricPrecision"
   xml:space="preserve"
   sodipodi:docname="logo-spin.svg"
   width="67.433754"
   height="78.272743"
   inkscape:version="0.92.2pre0 (973e216, 2017-07-25)"><metadata
     id="metadata15"><rdf:RDF><cc:Work
         rdf:about=""><dc:format>image/svg+xml</dc:format><dc:type
           rdf:resource="http://purl.org/dc/dcmitype/StillImage" /></cc:Work></rdf:RDF></metadata><defs
     id="defs13" /><sodipodi:namedview
     pagecolor="#ffffff"
     bordercolor="#666666"
     borderopacity="1"
     objecttolerance="10"
     gridtolerance="10"
     guidetolerance="10"
     inkscape:pageopacity="0"
     inkscape:pageshadow="2"
     inkscape:window-width="1366"
     inkscape:window-height="691"
     id="namedview11"
     showgrid="false"
     inkscape:zoom="3.1011827"
     inkscape:cx="-0.71884956"
     inkscape:cy="9.1569582"
     inkscape:window-x="0"
     inkscape:window-y="0"
     inkscape:window-maximized="1"
     inkscape:current-layer="Слой_1" /><style
     type="text/css"
     id="style2">
	.st0{fill:#ED443E;}
	.st1{fill:#C2232F;}
</style><g
     style="stroke-width:4.67549944"
     id="g10"
     transform="matrix(0.21387783,0,0,0.21387783,3420.1567,-1647.9286)"><path
       style="fill:#ef4136;stroke-width:4.67549944"
       inkscape:connector-curvature="0"
       id="path6"
       d="m -15835,7705 c -156.17,93.5 0,0 -156.17,93.5 l 0.161,181.35 5.75,3.2364 c 152.75,87.883 -5.75,-3.2364 150.25,86.539 l 2.5,1.3438 1.75,-184.76 154.88,-89.709 -78.486,-0.5 c -43.165,-0.275 -78.738,-0.755 -79.049,-1.0664 -0.311,-0.3114 -0.589,-20.674 -0.619,-45.25 -0.03,-25.945 -0.436,-44.684 -0.961,-44.684 z" /><path
       style="fill:#bf1e2e;fill-opacity:0.98648999;stroke-width:4.67549944"
       inkscape:connector-curvature="0"
       id="path8"
       d="m -15831,7886.2 154.88,-89.714 -75.929,136.92 c 0.221,1.5296 9.81,7.6022 37.999,24.063 20.738,12.11 37.838,22.464 38,23.01 0.163,0.5458 -6.004,4.6293 -13.704,9.0746 -112.09,64.713 -141.68,80.9 -142.99,81.405 z" /></g></svg>