<?xml version="1.0" encoding="UTF-8" standalone="no"?>
<!-- Roman Inozemtsev: https://github.com/mir-one/  -->

<svg
   xmlns:dc="http://purl.org/dc/elements/1.1/"
   xmlns:cc="http://creativecommons.org/ns#"
   xmlns:rdf="http://www.w3.org/1999/02/22-rdf-syntax-ns#"
   xmlns:svg="http://www.w3.org/2000/svg"
   xmlns="http://www.w3.org/2000/svg"
   xmlns:sodipodi="http://sodipodi.sourceforge.net/DTD/sodipodi-0.dtd"
   xmlns:inkscape="http://www.inkscape.org/namespaces/inkscape"
   version="1.1"
   id="Layer_2"
   x="0px"
   y="0px"
   viewBox="0 0 24 24"
   xml:space="preserve"
   sodipodi:docname="tabs-iconset-leasing.svg"
   width="24"
   height="24"
   inkscape:version="0.92.2pre0 (973e216, 2017-07-25)"><metadata
     id="metadata21"><rdf:RDF><cc:Work
         rdf:about=""><dc:format>image/svg+xml</dc:format><dc:type
           rdf:resource="http://purl.org/dc/dcmitype/StillImage" /></cc:Work></rdf:RDF></metadata><defs
     id="defs19" /><sodipodi:namedview
     pagecolor="#ffffff"
     bordercolor="#666666"
     borderopacity="1"
     objecttolerance="10"
     gridtolerance="10"
     guidetolerance="10"
     inkscape:pageopacity="0"
     inkscape:pageshadow="2"
     inkscape:window-width="1366"
     inkscape:window-height="691"
     id="namedview17"
     showgrid="false"
     inkscape:zoom="19.666667"
     inkscape:cx="15.971668"
     inkscape:cy="14.227418"
     inkscape:window-x="0"
     inkscape:window-y="0"
     inkscape:window-maximized="1"
     inkscape:current-layer="Layer_2" /><style
     type="text/css"
     id="style2">
	.st0{fill:#21409a;}
	.st1{fill:#FFFFFF;}
</style><path
     style="fill:#2584c6;fill-opacity:1;image-rendering:optimizeQuality;shape-rendering:geometricPrecision;text-rendering:geometricPrecision"
     inkscape:connector-curvature="0"
     class="st0"
     d="M 21.999999,24 H 2 C 0.90000002,24 0,23.1 0,22 V 1.9999999 C 0,0.90000005 0.90000002,0 2,0 h 19.999999 c 1.1,0 2,0.90000005 2,1.9999999 V 22 c 0,1.1 -0.9,2 -2,2 z"
     id="path820" /><path
     style="fill:#ffffff;image-rendering:optimizeQuality;shape-rendering:geometricPrecision;text-rendering:geometricPrecision"
     inkscape:connector-curvature="0"
     class="st1"
     d="M 21.599999,23 H 2.4 C 1.6,23 1,22.4 1,21.6 V 2.3999999 C 1,1.6 1.6,1 2.4,1 h 19.299999 c 0.7,0 1.3,0.6 1.3,1.3999999 V 21.7 c 0,0.7 -0.6,1.3 -1.4,1.3 z"
     id="path822" /><path
     class="st0"
     d="m 11.999999,4.7016946 c 0,0 -5.2,5.7000004 -5.2,9.6000004 0,2.9 2.4,5.2 5.2,5.2 2.8,0 5.2,-2.4 5.2,-5.2 0,-3.9 -5.2,-9.6000003 -5.2,-9.6000004 z"
     id="path10"
     style="fill:#2584c6;fill-opacity:1"
     inkscape:connector-curvature="0" /><g
     id="g14"
     style="fill:#ee453d;fill-opacity:1"
     transform="translate(-1e-6,0.10169468)"><path
       class="st1"
       d="m 11.4,15.4 h 2.7 l -0.2,1.1 h -4 L 11,10.1 h 1.3 z"
       id="path12"
       inkscape:connector-curvature="0"
       style="fill:#ee453d;fill-opacity:1" /></g></svg>