<?xml version="1.0" encoding="UTF-8" standalone="no"?>
<!-- Generator: Adobe Illustrator 21.0.0, SVG Export Plug-In . SVG Version: 6.00 Build 0)  -->

<svg
   xmlns:dc="http://purl.org/dc/elements/1.1/"
   xmlns:cc="http://creativecommons.org/ns#"
   xmlns:rdf="http://www.w3.org/1999/02/22-rdf-syntax-ns#"
   xmlns:svg="http://www.w3.org/2000/svg"
   xmlns="http://www.w3.org/2000/svg"
   xmlns:sodipodi="http://sodipodi.sourceforge.net/DTD/sodipodi-0.dtd"
   xmlns:inkscape="http://www.inkscape.org/namespaces/inkscape"
   version="1.1"
   id="Слой_1"
   x="0px"
   y="0px"
   viewBox="0 0 24 24"
   style="image-rendering:optimizeQuality;shape-rendering:geometricPrecision;text-rendering:geometricPrecision"
   xml:space="preserve"
   sodipodi:docname="tabs-iconset-exchange.svg"
   width="24"
   height="24"
   inkscape:version="0.92.2pre0 (973e216, 2017-07-25)"><metadata
     id="metadata27"><rdf:RDF><cc:Work
         rdf:about=""><dc:format>image/svg+xml</dc:format><dc:type
           rdf:resource="http://purl.org/dc/dcmitype/StillImage" /></cc:Work></rdf:RDF></metadata><defs
     id="defs25" /><sodipodi:namedview
     pagecolor="#ffffff"
     bordercolor="#666666"
     borderopacity="1"
     objecttolerance="10"
     gridtolerance="10"
     guidetolerance="10"
     inkscape:pageopacity="0"
     inkscape:pageshadow="2"
     inkscape:window-width="1366"
     inkscape:window-height="691"
     id="namedview23"
     showgrid="false"
     inkscape:zoom="9.8333333"
     inkscape:cx="12"
     inkscape:cy="12.431779"
     inkscape:window-x="0"
     inkscape:window-y="0"
     inkscape:window-maximized="1"
     inkscape:current-layer="Слой_1" /><style
     type="text/css"
     id="style2">
	.st0{fill:#00AEEF;}
	.st1{fill:#FFFFFF;}
</style><path
     style="fill:#2584c6;fill-opacity:1;image-rendering:optimizeQuality;shape-rendering:geometricPrecision;text-rendering:geometricPrecision"
     inkscape:connector-curvature="0"
     class="st0"
     d="M 21.999999,24 H 2 C 0.89999995,24 0,23.1 0,22 V 2 C 0,0.90000003 0.89999995,0 2,0 h 19.999999 c 1.1,0 2,0.90000003 2,2 v 20 c 0,1.1 -0.9,2 -2,2 z"
     id="path820" /><path
     style="fill:#ffffff;image-rendering:optimizeQuality;shape-rendering:geometricPrecision;text-rendering:geometricPrecision"
     inkscape:connector-curvature="0"
     class="st1"
     d="M 21.599999,23 H 2.3999998 c -0.8,0 -1.40000005,-0.6 -1.40000005,-1.4 V 2.4 C 0.99999975,1.6 1.5999998,1 2.3999998,1 H 21.699999 c 0.7,0 1.3,0.6 1.3,1.4 v 19.3 c 0,0.7 -0.6,1.3 -1.4,1.3 z"
     id="path822" /><path
     style="fill:#2584c6;fill-opacity:1"
     inkscape:connector-curvature="0"
     id="path10"
     d="m 15.6,9.7500001 c 0.6,0 1.1,0 1.7,0 0,2.4999999 0,4.9999999 0,7.4999999 -0.6,0 -1.1,0 -1.7,0 0,-2.5 0,-4.9 0,-7.4999999 z"
     class="st0" /><path
     style="fill:#2584c6;fill-opacity:1"
     inkscape:connector-curvature="0"
     id="path12"
     d="m 15.6,7.3500001 c -0.1,-0.2 -0.2,-0.4 -0.4,-0.7 0.7,0.1 1.4,0.1 2.1,0.2 -0.3,0.7 -0.6,1.3 -0.9,1.9 -0.2,-0.3 -0.3,-0.5 -0.4,-0.7 -1.5,0.8 -3,1.7 -4.5,2.4999999 -1.4,0.8 -2.9000004,1.7 -4.4000004,2.5 -0.1,-0.2 -0.3,-0.4 -0.4,-0.7 C 9.6999996,10.65 12.6,8.9500001 15.6,7.3500001 Z"
     class="st0" /><path
     style="fill:#2584c6;fill-opacity:1"
     inkscape:connector-curvature="0"
     id="path14"
     d="m 14.3,17.35 c -0.6,0 -1.1,0 -1.7,0 0,-2 0,-3.9 0,-5.9 0.5,0 1.1,0 1.7,0 0,1.9 0,3.8 0,5.9 z"
     class="st0" /><path
     style="fill:#ee4036;fill-opacity:0.94901961"
     inkscape:connector-curvature="0"
     id="path16"
     d="m 11.4,12.95 c 0,0.1 0,0.3 0,0.4 0,1.3 0,2.6 0,4 -0.6,0 -1.2,0 -1.8000004,0 0,-1.4 0,-2.9 0,-4.4 C 10.2,12.95 10.7,12.95 11.4,12.95 Z"
     class="st0" /><path
     style="fill:#ee4036;fill-opacity:0.94901961"
     inkscape:connector-curvature="0"
     id="path18"
     d="m 8.3999996,14.35 c 0,1 0,1.9 0,2.9 -0.6,0 -1.1,0 -1.7,0 0,-1 0,-1.9 0,-2.9 0.5,0 1.1,0 1.7,0 z"
     class="st0" /><style
     id="style2-6"
     type="text/css">
	.st0{fill:#3F58A7;}
	.st1{fill:#FFFFFF;}
</style><style
     type="text/css"
     id="style21">
	.st0{fill:#00AEEF;}
	.st1{fill:#FFFFFF;}
</style><style
     type="text/css"
     id="style60">
	.st0{fill:url(#SVGID_1_);}
	.st1{fill:#FFFFFF;}
</style><style
     type="text/css"
     id="style818">
	.st0{fill:#21409A;}
	.st1{fill:#FFFFFF;}
</style></svg>