<?xml version="1.0" encoding="UTF-8" standalone="no"?>
<!-- Roman Inozemtsev: https://github.com/mir-one/  -->

<svg
   xmlns:dc="http://purl.org/dc/elements/1.1/"
   xmlns:cc="http://creativecommons.org/ns#"
   xmlns:rdf="http://www.w3.org/1999/02/22-rdf-syntax-ns#"
   xmlns:svg="http://www.w3.org/2000/svg"
   xmlns="http://www.w3.org/2000/svg"
   xmlns:sodipodi="http://sodipodi.sourceforge.net/DTD/sodipodi-0.dtd"
   xmlns:inkscape="http://www.inkscape.org/namespaces/inkscape"
   version="1.1"
   id="Слой_1"
   x="0px"
   y="0px"
   viewBox="0 0 1409.5618 534.43244"
   style="image-rendering:optimizeQuality;shape-rendering:geometricPrecision;text-rendering:geometricPrecision"
   xml:space="preserve"
   sodipodi:docname="topleftlogo2.svg"
   width="1409.5618"
   height="534.43243"
   inkscape:version="0.92.2pre0 (973e216, 2017-07-25)"><metadata
     id="metadata57"><rdf:RDF><cc:Work
         rdf:about=""><dc:format>image/svg+xml</dc:format><dc:type
           rdf:resource="http://purl.org/dc/dcmitype/StillImage" /></cc:Work></rdf:RDF></metadata><defs
     id="defs55" /><sodipodi:namedview
     pagecolor="#ffffff"
     bordercolor="#666666"
     borderopacity="1"
     objecttolerance="10"
     gridtolerance="10"
     guidetolerance="10"
     inkscape:pageopacity="0"
     inkscape:pageshadow="2"
     inkscape:window-width="1366"
     inkscape:window-height="691"
     id="namedview53"
     showgrid="false"
     inkscape:zoom="0.18861894"
     inkscape:cx="-327.12275"
     inkscape:cy="371.78445"
     inkscape:window-x="0"
     inkscape:window-y="0"
     inkscape:window-maximized="1"
     inkscape:current-layer="Слой_1" /><style
     type="text/css"
     id="style2">
	.st0{fill:#ED443E;}
	.st1{fill:#C2232F;}
	.st2{fill:#25A9E0;}
</style><g
     style="stroke-width:0.6847716"
     id="g10"
     transform="matrix(1.46032,0,0,1.46032,23352.225,-11251.765)"><path
       style="fill:#ef4136;stroke-width:0.6847716"
       inkscape:connector-curvature="0"
       id="path6"
       d="m -15835,7705 c -156.17,93.5 0,0 -156.17,93.5 l 0.161,181.35 5.75,3.2364 c 152.75,87.883 -5.75,-3.2364 150.25,86.539 l 2.5,1.3438 1.75,-184.76 154.88,-89.709 -78.486,-0.5 c -43.165,-0.275 -78.738,-0.755 -79.049,-1.0664 -0.311,-0.3114 -0.589,-20.674 -0.619,-45.25 -0.03,-25.945 -0.436,-44.684 -0.961,-44.684 z" /><path
       style="fill:#bf1e2e;fill-opacity:0.98648999;stroke-width:0.6847716"
       inkscape:connector-curvature="0"
       id="path8"
       d="m -15831,7886.2 154.88,-89.714 -75.929,136.92 c 0.221,1.5296 9.81,7.6022 37.999,24.063 20.738,12.11 37.838,22.464 38,23.01 0.163,0.5458 -6.004,4.6293 -13.704,9.0746 -112.09,64.713 -141.68,80.9 -142.99,81.405 z" /></g><g
     aria-label="БЛОКЧЕЙН- НА-АМУРЕ"
     transform="matrix(0.73774599,0,0,0.73774599,245.0162,-123.62679)"
     style="font-style:normal;font-variant:normal;font-weight:800;font-stretch:normal;font-size:206.66667175px;line-height:1;font-family:Panton;-inkscape-font-specification:'Panton Ultra-Bold';letter-spacing:0px;word-spacing:0px;fill:#1163af;fill-opacity:0.90196078;stroke:none;stroke-width:1.35548007"
     id="flowRoot897"><path
       d="m 524.61524,374.99102 h -87.42001 c -6.2,0 -8.47333,2.06666 -8.47333,8.47333 v 130.2 c 0,6.2 2.48,8.06 8.26667,8.06 h 58.9 c 28.52,0 47.12,-17.77333 47.12,-46.29333 0,-28.93334 -18.6,-46.5 -47.12,-46.5 h -33.48 v -23.97334 h 62.20667 c 6.2,0 8.47333,-2.27333 8.47333,-8.47333 v -13.02 c 0,-6.40667 -2.27333,-8.47333 -8.47333,-8.47333 z m -16.32667,100.44 c 0,9.71333 -6.2,16.32667 -17.15333,16.32667 h -28.72667 v -32.86001 h 28.72667 c 10.95333,0 17.15333,6.61334 17.15333,16.53334 z"
       id="path1005"
       inkscape:connector-curvature="0"
       style="stroke-width:1.35548007" /><path
       d="m 669.00742,374.99102 h -83.08 c -6.40666,0 -8.47333,2.06666 -8.47333,8.47333 v 44.22667 c 0,50.84 -13.22667,60.14 -23.56,65.51333 -5.78667,2.89334 -6.82,5.78667 -4.13333,11.36667 l 8.06,14.67333 c 2.48,5.78667 5.37333,6.82 11.16,4.13334 21.7,-10.54 41.33333,-28.10667 41.33333,-95.89334 v -21.7 h 33.68667 v 107.46667 c 0,6.40667 2.06666,8.47333 8.47333,8.47333 h 16.53333 c 6.40667,0 8.47334,-2.06666 8.47334,-8.47333 V 383.46435 c 0,-6.40667 -2.06667,-8.47333 -8.47334,-8.47333 z"
       id="path1007"
       inkscape:connector-curvature="0"
       style="stroke-width:1.35548007" /><path
       d="m 698.87077,427.48435 v 41.74667 c 0,34.30667 21.90666,55.59333 60.96666,55.59333 39.26667,0 61.17334,-21.28666 61.17334,-55.59333 v -41.74667 c 0,-34.30667 -21.90667,-55.59333 -61.17334,-55.59333 -39.06,0 -60.96666,21.28666 -60.96666,55.59333 z m 88.45333,-0.62 v 42.98667 c 0,16.12 -9.92,24.18 -27.48667,24.18 -17.36,0 -27.28,-8.06 -27.28,-24.18 v -42.98667 c 0,-16.12 9.92,-24.18 27.28,-24.18 17.56667,0 27.48667,8.06 27.48667,24.18 z"
       id="path1009"
       inkscape:connector-curvature="0"
       style="stroke-width:1.35548007" /><path
       d="m 959.0189,512.83769 -26.45333,-50.42667 c -5.37333,-10.12667 -10.95333,-17.15334 -18.80667,-21.7 l 42.78,-57.45334 c 3.30667,-4.34 1.65334,-8.26666 -4.13333,-8.26666 h -17.98 c -9.92,0 -12.19333,1.03333 -16.53333,7.02666 l -36.58,50.22 h -1.86 -3.30667 v -48.77333 c 0,-6.40667 -2.27334,-8.47333 -8.47334,-8.47333 h -16.74 c -6.2,0 -8.47333,2.06666 -8.47333,8.47333 v 129.78667 c 0,6.40667 2.27333,8.47333 8.47333,8.47333 h 16.74 c 6.2,0 8.47334,-2.06666 8.47334,-8.47333 v -50.84 h 5.37333 c 11.78,0 15.5,2.89333 20.04667,12.4 l 19.42667,39.26667 c 3.1,6.40666 6.40666,7.64666 16.94666,7.64666 h 16.53334 c 6.40666,0 7.23333,-3.92666 4.54666,-8.88666 z"
       id="path1011"
       inkscape:connector-curvature="0"
       style="stroke-width:1.35548007" /><path
       d="m 1075.5014,374.99102 h -16.74 c -6.2,0 -8.2667,2.06666 -8.2667,8.47333 v 53.32 c -3.3067,0.82667 -11.16,2.48 -23.1467,2.48 -16.74,0 -24.8,-7.64667 -24.8,-21.49333 v -34.30667 c 0,-6.40667 -2.0666,-8.47333 -8.47329,-8.47333 h -16.53333 c -6.40667,0 -8.47333,2.06666 -8.47333,8.47333 v 34.30667 c 0,33.89333 15.91333,52.7 55.38665,52.7 13.02,0 21.9067,-1.24 26.04,-1.86 v 44.64 c 0,6.40667 2.0667,8.47333 8.2667,8.47333 h 16.74 c 6.4066,0 8.4733,-2.06666 8.4733,-8.47333 V 383.46435 c 0,-6.40667 -2.0667,-8.47333 -8.4733,-8.47333 z"
       id="path1013"
       inkscape:connector-curvature="0"
       style="stroke-width:1.35548007" /><path
       d="m 1200.8221,374.99102 h -83.08 c -6.2,0 -8.4733,2.06666 -8.4733,8.47333 v 129.78667 c 0,6.40667 2.2733,8.47333 8.4733,8.47333 h 85.1467 c 6.2,0 8.4733,-2.06666 8.4733,-8.47333 v -13.84667 c 0,-6.2 -2.2733,-8.47333 -8.4733,-8.47333 h -59.9334 v -28.10667 h 47.5334 c 6.4066,0 8.4733,-2.06667 8.4733,-8.47333 v -13.84667 c 0,-6.2 -2.0667,-8.26667 -8.4733,-8.26667 h -47.5334 v -26.66 h 57.8667 c 6.4067,0 8.4733,-2.06666 8.4733,-8.26666 v -13.84667 c 0,-6.40667 -2.0666,-8.47333 -8.4733,-8.47333 z"
       id="path1015"
       inkscape:connector-curvature="0"
       style="stroke-width:1.35548007" /><path
       d="m 1328.9522,343.78435 c 1.4467,-4.13334 0.4134,-5.78667 -3.72,-7.44 l -13.8466,-4.54667 c -3.9267,-1.24 -5.58,-0.82667 -7.2334,2.89333 -2.6866,5.37334 -7.44,8.47334 -13.4333,8.47334 -6.2,0 -10.9533,-3.1 -13.2267,-8.47334 -1.86,-3.72 -3.72,-4.13333 -8.68,-2.68666 l -12.1933,4.34 c -4.34,1.65333 -5.3733,3.30666 -3.72,7.44 5.3733,13.84667 19.4267,22.11333 37.82,22.11333 18.6,0 32.6533,-8.26666 38.2333,-22.11333 z m 12.6067,31.20667 h -17.5667 c -4.34,0 -6.4066,1.24 -8.06,3.92666 l -37.4066,59.31334 c -10.3334,16.74 -13.8467,24.18 -20.2534,42.16 h -1.24 c 5.1667,-20.04667 6.6134,-26.45334 6.6134,-50.01334 v -46.91333 c 0,-6.40667 -2.2734,-8.47333 -8.4734,-8.47333 h -16.74 c -6.2,0 -8.4733,2.06666 -8.4733,8.47333 v 129.78667 c 0,6.40667 2.2733,8.47333 8.4733,8.47333 h 17.5667 c 4.1333,0 6.4067,-1.03333 8.06,-3.92666 l 37.82,-60.34667 c 10.54,-16.74 13.4333,-23.14667 19.84,-41.12667 h 1.24 c -4.7533,20.25333 -6.6133,26.04 -6.6133,50.01333 v 46.91334 c 0,6.40667 2.2733,8.47333 8.4733,8.47333 h 16.74 c 6.2,0 8.4733,-2.06666 8.4733,-8.47333 V 383.46435 c 0,-6.40667 -2.2733,-8.47333 -8.4733,-8.47333 z"
       id="path1017"
       inkscape:connector-curvature="0"
       style="stroke-width:1.35548007" /><path
       d="m 1483.9781,374.99102 h -16.74 c -6.4067,0 -8.4734,2.06666 -8.4734,8.47333 v 48.56667 h -49.8066 v -48.56667 c 0,-6.40667 -2.2734,-8.47333 -8.4734,-8.47333 h -16.74 c -6.2,0 -8.4733,2.06666 -8.4733,8.47333 v 129.78667 c 0,6.40667 2.2733,8.47333 8.4733,8.47333 h 16.74 c 6.2,0 8.4734,-2.06666 8.4734,-8.47333 v -50.42667 h 49.8066 v 50.42667 c 0,6.40667 2.0667,8.47333 8.4734,8.47333 h 16.74 c 6.2,0 8.2666,-2.06666 8.2666,-8.47333 V 383.46435 c 0,-6.40667 -2.0666,-8.47333 -8.2666,-8.47333 z"
       id="path1019"
       inkscape:connector-curvature="0"
       style="stroke-width:1.35548007" /><path
       d="m 1570.0451,452.28435 h -45.88 c -6.2,0 -8.4734,2.06667 -8.4734,8.47333 v 12.60667 c 0,6.40667 2.2734,8.47334 8.4734,8.47334 h 45.88 c 6.4066,0 8.4733,-2.06667 8.4733,-8.47334 v -12.60667 c 0,-6.40666 -2.0667,-8.47333 -8.4733,-8.47333 z"
       id="path1021"
       inkscape:connector-curvature="0"
       style="stroke-width:1.35548007" /><path
       d="m 537.42857,581.6577 h -16.74 c -6.40667,0 -8.47333,2.06667 -8.47333,8.47334 v 48.56666 h -49.80667 v -48.56666 c 0,-6.40667 -2.27333,-8.47334 -8.47333,-8.47334 h -16.74001 c -6.2,0 -8.47333,2.06667 -8.47333,8.47334 v 129.78667 c 0,6.40666 2.27333,8.47333 8.47333,8.47333 h 16.74001 c 6.2,0 8.47333,-2.06667 8.47333,-8.47333 v -50.42667 h 49.80667 v 50.42667 c 0,6.40666 2.06666,8.47333 8.47333,8.47333 h 16.74 c 6.2,0 8.26667,-2.06667 8.26667,-8.47333 V 590.13104 c 0,-6.40667 -2.06667,-8.47334 -8.26667,-8.47334 z"
       id="path1023"
       inkscape:connector-curvature="0"
       style="stroke-width:1.35548007" /><path
       d="M 695.62222,720.12437 646.22889,588.27104 c -1.86,-5.37334 -4.54667,-6.61334 -10.33334,-6.61334 h -15.91333 c -5.78667,0 -8.26667,1.24 -10.33333,7.02667 l -49.39334,131.44 c -2.06666,5.58 -0.62,8.26667 5.58,8.26667 h 14.26 c 10.33334,0 13.02,-1.65333 15.08667,-7.64667 l 6.61333,-19.42666 h 51.04667 l 6.40667,19.42666 c 1.86,5.99334 4.96,7.64667 15.29333,7.64667 h 15.5 c 5.99334,0 7.64667,-2.68667 5.58,-8.26667 z m -62.20667,-78.12 10.74667,32.03334 h -33.48 l 10.74667,-32.24001 c 4.96,-14.67333 4.75333,-29.34666 4.75333,-29.34666 h 2.06667 c 0,0 0.41333,14.67333 5.16666,29.55333 z"
       id="path1025"
       inkscape:connector-curvature="0"
       style="stroke-width:1.35548007" /><path
       d="m 758.71691,658.95104 h -45.88 c -6.2,0 -8.47333,2.06666 -8.47333,8.47333 v 12.60667 c 0,6.40667 2.27333,8.47333 8.47333,8.47333 h 45.88 c 6.40667,0 8.47334,-2.06666 8.47334,-8.47333 v -12.60667 c 0,-6.40667 -2.06667,-8.47333 -8.47334,-8.47333 z"
       id="path1027"
       inkscape:connector-curvature="0"
       style="stroke-width:1.35548007" /><path
       d="M 911.16911,720.12437 861.77578,588.27104 c -1.86,-5.37334 -4.54667,-6.61334 -10.33334,-6.61334 h -15.91333 c -5.78667,0 -8.26667,1.24 -10.33333,7.02667 l -49.39334,131.44 c -2.06666,5.58 -0.62,8.26667 5.58,8.26667 h 14.26 c 10.33334,0 13.02,-1.65333 15.08667,-7.64667 l 6.61333,-19.42666 h 51.04667 l 6.40667,19.42666 c 1.86,5.99334 4.96,7.64667 15.29333,7.64667 h 15.5 c 5.99334,0 7.64667,-2.68667 5.58,-8.26667 z m -62.20667,-78.12 10.74667,32.03334 h -33.48 l 10.74667,-32.24001 c 4.96,-14.67333 4.75333,-29.34666 4.75333,-29.34666 h 2.06667 c 0,0 0.41333,14.67333 5.16666,29.55333 z"
       id="path1029"
       inkscape:connector-curvature="0"
       style="stroke-width:1.35548007" /><path
       d="m 1060.9766,581.6577 h -14.6733 c -6.4067,0 -8.06,1.03334 -11.16,6.40667 l -38.0267,69.64667 -37.82,-69.85334 c -2.89333,-4.96 -4.96,-6.2 -11.78,-6.2 h -13.43333 c -6.2,0 -8.47334,2.06667 -8.47334,8.26667 v 130.2 c 0,6.2 2.27334,8.26667 8.47334,8.26667 h 14.67333 c 6.2,0 8.26667,-2.06667 8.26667,-8.26667 v -46.70666 c 0,-13.84667 -1.24,-25.62667 -6.2,-46.70667 h 1.86 c 4.13333,15.08666 8.68,27.28 15.29333,38.44 l 14.88,26.24667 c 2.48,4.75333 4.34,5.99333 9.50667,5.99333 h 9.50663 c 5.1667,0 7.0267,-1.65333 9.3,-5.99333 l 14.6734,-26.24667 c 6.2,-11.16 11.9866,-24.38667 16.3266,-38.44 h 1.86 c -5.1666,20.25333 -6.82,33.89333 -6.82,46.5 v 46.91333 c 0,6.2 2.0667,8.26667 8.2667,8.26667 h 15.5 c 6.4067,0 8.4733,-2.06667 8.4733,-8.26667 v -130.2 c 0,-6.2 -2.0666,-8.26667 -8.4733,-8.26667 z"
       id="path1031"
       inkscape:connector-curvature="0"
       style="stroke-width:1.35548007" /><path
       d="m 1204.6842,581.6577 h -17.1533 c -9.5067,0 -11.78,0.20667 -14.6734,7.44 l -24.5933,57.24667 -27.0733,-57.24667 c -3.3067,-7.23333 -6.4067,-7.44 -16.12,-7.44 h -17.36 c -5.9934,0 -6.82,3.30667 -4.34,8.47334 l 47.3266,94.86 -16.74,34.92667 c -2.2733,4.96 -1.86,8.47333 4.1334,8.47333 h 19.4266 c 8.8867,0 10.9534,-1.24 13.64,-7.44 l 57.66,-130.82 c 2.2734,-5.16667 1.86,-8.47334 -4.1333,-8.47334 z"
       id="path1033"
       inkscape:connector-curvature="0"
       style="stroke-width:1.35548007" /><path
       d="m 1287.3606,581.6577 h -55.3867 c -6.2,0 -8.4733,2.06667 -8.4733,8.47334 v 129.78667 c 0,6.40666 2.2733,8.47333 8.4733,8.47333 h 16.74 c 6.2,0 8.4734,-2.06667 8.4734,-8.47333 v -39.26667 h 30.1733 c 31.2067,0 50.6333,-18.39334 50.6333,-49.39334 0,-31 -19.84,-49.6 -50.6333,-49.6 z m -3.5133,68.2 h -26.66 v -37.61333 h 26.66 c 12.1933,0 19.22,7.23333 19.22,19.01333 0,11.78 -7.2334,18.6 -19.22,18.6 z"
       id="path1035"
       inkscape:connector-curvature="0"
       style="stroke-width:1.35548007" /><path
       d="m 1447.0461,581.6577 h -83.08 c -6.2,0 -8.4733,2.06667 -8.4733,8.47334 v 129.78667 c 0,6.40666 2.2733,8.47333 8.4733,8.47333 h 85.1467 c 6.2,0 8.4733,-2.06667 8.4733,-8.47333 v -13.84667 c 0,-6.2 -2.2733,-8.47333 -8.4733,-8.47333 h -59.9334 v -28.10667 h 47.5334 c 6.4066,0 8.4733,-2.06667 8.4733,-8.47334 v -13.84666 c 0,-6.2 -2.0667,-8.26667 -8.4733,-8.26667 h -47.5334 v -26.66 h 57.8667 c 6.4067,0 8.4733,-2.06667 8.4733,-8.26667 v -13.84666 c 0,-6.40667 -2.0666,-8.47334 -8.4733,-8.47334 z"
       id="path1037"
       inkscape:connector-curvature="0"
       style="stroke-width:1.35548007" /></g></svg>