<?xml version="1.0" encoding="UTF-8" standalone="no"?>
<!-- Roman Inozemtsev: https://github.com/mir-one/  -->

<svg
   xmlns:dc="http://purl.org/dc/elements/1.1/"
   xmlns:cc="http://creativecommons.org/ns#"
   xmlns:rdf="http://www.w3.org/1999/02/22-rdf-syntax-ns#"
   xmlns:svg="http://www.w3.org/2000/svg"
   xmlns="http://www.w3.org/2000/svg"
   xmlns:sodipodi="http://sodipodi.sourceforge.net/DTD/sodipodi-0.dtd"
   xmlns:inkscape="http://www.inkscape.org/namespaces/inkscape"
   version="1.1"
   id="Слой_1"
   x="0px"
   y="0px"
   viewBox="0 0 66.900879 67.000008"
   xml:space="preserve"
   sodipodi:docname="wB-bg-PHOTO.svg"
   inkscape:version="0.92.3 (2405546, 2018-03-11)"
   width="66.900879"
   height="67.000008"><metadata
     id="metadata23"><rdf:RDF><cc:Work
         rdf:about=""><dc:format>image/svg+xml</dc:format><dc:type
           rdf:resource="http://purl.org/dc/dcmitype/StillImage" /></cc:Work></rdf:RDF></metadata><defs
     id="defs21" /><sodipodi:namedview
     pagecolor="#ffffff"
     bordercolor="#666666"
     borderopacity="1"
     objecttolerance="10"
     gridtolerance="10"
     guidetolerance="10"
     inkscape:pageopacity="0"
     inkscape:pageshadow="2"
     inkscape:window-width="1366"
     inkscape:window-height="691"
     id="namedview19"
     showgrid="false"
     inkscape:zoom="3.522388"
     inkscape:cx="43.38159"
     inkscape:cy="41.227213"
     inkscape:window-x="0"
     inkscape:window-y="0"
     inkscape:window-maximized="1"
     inkscape:current-layer="Слой_1" /><style
     type="text/css"
     id="style2">
	.st0{fill:#1A1A1A;}
	.st1{fill:#232323;}
	.st2{fill:#FFFFFF;}
</style><path
     style="fill:#4d4d4d;fill-opacity:1"
     d="M 33.5,0 C 15,0 0,15 0,33.5 0,52 15,67.000005 33.5,67.000005 c 1.2,0 2.30039,-0.10118 3.40039,-0.20118 15.1,-1.5 27.19961,-13.100388 29.59961,-27.900388 l -0.0879,-0.08789 C 66.70388,37.043464 66.90038,35.368649 66.90038,33.5 67.00038,15 51.99999,0 33.49999,0 Z m 0,2.59961 c 17.1,0 30.90039,13.90039 30.90039,30.90039 0,1.1 -0.10117,2.099219 -0.20117,3.199219 l 0.0898,0.08789 C 62.74886,52.044523 50.06989,63.899405 34.49995,64.398435 h -1 C 16.39995,64.398435 2.59956,50.5 2.59956,33.5 2.59956,16.4 16.49995,2.59961 33.49995,2.59961 Z"
     id="path839"
     inkscape:connector-curvature="0" /><path
     style="fill:#4d4d4d;fill-opacity:1"
     d="m 33.437939,4.5067226 c -7.425,0 -14.85,2.8265626 -20.5,8.4765614 -11.3,11.3 -11.3,29.7 0,41 5.4,5.4 12.49961,8.200002 19.59961,8.500002 7.7,0.2 15.50039,-2.600002 21.40039,-8.500002 5.3,-5.3 8.1,-12.201172 8.5,-19.201172 l -0.0977,-0.0957 c 0.37234,-7.769744 -2.42684,-15.727622 -8.40235,-21.703125 -5.65,-5.6499988 -13.075,-8.4765614 -20.5,-8.4765614 z"
     id="path841"
     inkscape:connector-curvature="0" /><path
     style="fill:#ffffff"
     inkscape:connector-curvature="0"
     class="st2"
     d="m 33.400439,2.6000003 c -17.1,0 -30.9,13.7999997 -30.9,30.8999997 0,17.1 13.9,30.900005 30.9,30.900005 0.3,0 0.7,0 1,-0.1 15.6,-0.5 28.2,-12.500005 29.8,-27.700005 0.1,-1 0.2,-2.1 0.2,-3.2 -0.1,-17 -13.9,-30.8000007 -31,-30.7999997 z M 53.900439,54 c -5.9,5.9 -13.7,8.700005 -21.4,8.500005 -7.1,-0.2 -14.2,-3.000005 -19.6,-8.500005 -11.3,-11.3 -11.3,-29.7 0,-41 11.3,-11.2999997 29.7,-11.2999997 41,0 6,6 8.8,14 8.4,21.8 -0.3,7 -3.1,13.9 -8.4,19.2 z"
     id="path845" /><path
     id="rect951-3"
     style="fill:#ffffff;fill-opacity:1;fill-rule:nonzero;stroke-width:0.06331094"
     d="m 33.587008,14.443226 c -1.242896,0.0037 -2.493257,0.129161 -3.73807,0.37838 -4.803854,0.961776 -9.029104,3.747544 -11.94956,7.878752 -1.453423,2.055971 -2.61657,4.919029 -3.089508,7.60461 -0.234209,1.329999 -0.317496,3.796178 -0.174468,5.16318 0.596678,5.702728 3.69354,10.788709 8.531888,14.011751 2.292149,1.526904 5.244996,2.615487 8.103797,2.98761 1.147656,0.149386 4.111637,0.104106 5.266069,-0.0805 2.243896,-0.358823 4.353366,-1.085354 6.340995,-2.183856 0.779674,-0.430914 2.160774,-1.342452 2.305775,-1.521812 0.05703,-0.07057 -0.308244,-0.604055 -1.225174,-1.788905 -0.718596,-0.928562 -1.333835,-1.698421 -1.36712,-1.71088 -0.03329,-0.01246 -0.438221,0.230897 -0.899953,0.540864 -3.328499,2.234498 -7.621364,2.975522 -11.602353,2.002701 -2.562285,-0.626136 -4.875116,-1.942876 -6.795541,-3.868644 -2.826929,-2.834793 -4.275661,-6.317065 -4.285472,-10.301507 -0.0086,-3.490032 1.080508,-6.575038 3.281661,-9.29595 2.130023,-2.633023 5.115523,-4.413932 8.573069,-5.113843 1.292992,-0.261745 4.043521,-0.280073 5.346304,-0.03562 2.29133,0.429959 4.518992,1.410655 6.24663,2.749946 0.27857,0.215946 0.550586,0.419272 0.604423,0.451832 0.09399,0.05681 2.827004,-3.042716 2.880526,-3.26682 0.05293,-0.221523 -2.228817,-1.788757 -3.673753,-2.523411 -2.649854,-1.347266 -5.517459,-2.047428 -8.431624,-2.07702 -0.08278,-9.17e-4 -0.165681,-0.0011 -0.248541,-9.17e-4 z m 0.02993,6.799125 c -0.983221,-0.0071 -1.962478,0.100102 -2.89821,0.323108 -4.157432,0.990815 -7.532007,4.106955 -8.855119,8.177129 -0.433734,1.334221 -0.578957,2.274934 -0.582048,3.770094 -0.0052,2.497274 0.639868,4.675323 1.995038,6.736309 2.022458,3.075835 5.302445,5.088647 8.965306,5.501498 0.868121,0.09785 2.526933,0.03614 3.477149,-0.129219 3.997202,-0.695672 7.578675,-3.575106 9.163136,-7.367193 2.195625,-5.254726 0.49861,-11.259487 -4.1533,-14.696548 -0.796446,-0.58846 -2.412462,-1.411825 -3.384403,-1.724357 -1.192837,-0.383556 -2.463416,-0.581647 -3.727553,-0.590821 z m -0.118956,4.445492 c 1.730262,-0.009 3.473165,0.553428 4.926123,1.702348 1.585039,1.253343 2.628241,3.107578 2.897837,5.150692 0.508496,3.853604 -2.008403,7.581973 -5.787875,8.573685 -0.870463,0.228407 -2.538233,0.292191 -3.389988,0.129592 -2.502099,-0.477656 -4.520164,-2.018145 -5.649876,-4.312688 -0.584505,-1.18717 -0.735703,-1.875689 -0.741436,-3.376502 -0.0039,-1.041931 0.02768,-1.389368 0.178805,-1.961155 0.380977,-1.441348 1.073547,-2.619308 2.172244,-3.694663 1.488328,-1.456732 3.433196,-2.201052 5.394166,-2.211309 z"
     inkscape:connector-curvature="0"
     sodipodi:nodetypes="cssccsssccccssssccssccccccssccsssscssssccscccss" /></svg>