<?xml version="1.0" encoding="UTF-8" standalone="no"?>
<!-- Roman Inozemtsev: https://github.com/mir-one/  -->

<svg
   xmlns:dc="http://purl.org/dc/elements/1.1/"
   xmlns:cc="http://creativecommons.org/ns#"
   xmlns:rdf="http://www.w3.org/1999/02/22-rdf-syntax-ns#"
   xmlns:svg="http://www.w3.org/2000/svg"
   xmlns="http://www.w3.org/2000/svg"
   xmlns:sodipodi="http://sodipodi.sourceforge.net/DTD/sodipodi-0.dtd"
   xmlns:inkscape="http://www.inkscape.org/namespaces/inkscape"
   version="1.1"
   id="Слой_1"
   x="0px"
   y="0px"
   viewBox="0 0 66.900883 67"
   xml:space="preserve"
   sodipodi:docname="wB-bg-FST.svg"
   inkscape:version="0.92.3 (2405546, 2018-03-11)"
   width="66.900887"
   height="67"><metadata
     id="metadata27"><rdf:RDF><cc:Work
         rdf:about=""><dc:format>image/svg+xml</dc:format><dc:type
           rdf:resource="http://purl.org/dc/dcmitype/StillImage" /><dc:title></dc:title></cc:Work></rdf:RDF></metadata><defs
     id="defs25">
	
	
	
	
	
	
	
</defs><sodipodi:namedview
     pagecolor="#ffffff"
     bordercolor="#666666"
     borderopacity="1"
     objecttolerance="10"
     gridtolerance="10"
     guidetolerance="10"
     inkscape:pageopacity="0"
     inkscape:pageshadow="2"
     inkscape:window-width="1366"
     inkscape:window-height="691"
     id="namedview23"
     showgrid="false"
     inkscape:zoom="5.1744869"
     inkscape:cx="14.975085"
     inkscape:cy="33.198125"
     inkscape:window-x="0"
     inkscape:window-y="0"
     inkscape:window-maximized="1"
     inkscape:current-layer="Слой_1" /><style
     type="text/css"
     id="style2">
	.st0{fill:#3F61AC;}
	.st1{fill:#FFFFFF;}
	.st2{fill:#2B388F;}
	.st3{fill:#58595B;}
</style><path
     style="fill:#00a551;fill-opacity:1"
     d="M 33.5,0 C 15,0 0,15 0,33.5 0,52 15,67 33.5,67 c 1.2,0 2.30039,-0.101172 3.40039,-0.201172 15.1,-1.5 27.19961,-13.100391 29.59961,-27.900391 l -0.0879,-0.08789 C 66.70388,37.043464 66.90038,35.368649 66.90038,33.5 67.00038,15 51.99999,0 33.49999,0 Z m 0,2.5996094 C 50.6,2.5996094 64.40039,16.5 64.40039,33.5 c 0,1.1 -0.10117,2.099219 -0.20117,3.199219 l 0.0898,0.08789 C 62.74886,52.044523 50.06989,63.899401 34.49995,64.398437 h -1 C 16.39995,64.398437 2.59956,50.5 2.59956,33.5 2.59956,16.4 16.49995,2.5996094 33.49995,2.5996094 Z"
     id="path839"
     inkscape:connector-curvature="0" /><path
     style="fill:#00a551;fill-opacity:1"
     d="m 33.437939,4.5067207 c -7.425,0 -14.85,2.8265626 -20.5,8.4765623 -11.3000005,11.3 -11.3000005,29.7 0,41 5.4,5.4 12.49961,8.2 19.59961,8.5 7.7,0.2 15.50039,-2.6 21.40039,-8.5 5.3,-5.3 8.1,-12.201172 8.5,-19.201172 l -0.0977,-0.0957 c 0.37234,-7.769744 -2.42684,-15.727622 -8.40235,-21.703125 -5.65,-5.6499997 -13.075,-8.4765623 -20.5,-8.4765623 z"
     id="path841"
     inkscape:connector-curvature="0" /><path
     style="fill:#ffffff"
     inkscape:connector-curvature="0"
     class="st2"
     d="m 33.400439,2.6 c -17.1,0 -30.9000005,13.8 -30.9000005,30.9 0,17.1 13.9000005,30.9 30.9000005,30.9 0.3,0 0.7,0 1,-0.1 15.6,-0.5 28.2,-12.5 29.8,-27.7 0.1,-1 0.2,-2.1 0.2,-3.2 -0.1,-17 -13.9,-30.8000001 -31,-30.8 z m 20.5,51.4 c -5.9,5.9 -13.7,8.7 -21.4,8.5 -7.1,-0.2 -14.2,-3 -19.6,-8.5 -11.3000005,-11.3 -11.3000005,-29.7 0,-41 11.3,-11.3 29.7,-11.3 41,0 6,6 8.8,14 8.4,21.8 -0.3,7 -3.1,13.9 -8.4,19.2 z"
     id="path845" /><style
     id="style2-6"
     type="text/css">
	.st0{fill:#ED443E;}
	.st1{fill:#C2232F;}
</style><style
     id="style837"
     type="text/css">
	.st0{fill:#F6921E;}
	.st1{fill:#F05A28;}
	.st2{fill:#FFFFFF;}
	.st3{fill:#58595B;}
</style><style
     id="style2-3"
     type="text/css">
	.st0{fill:#ED443E;}
	.st1{fill:#C2232F;}
</style><style
     id="style822"
     type="text/css">
	.st0{fill:#FFFFFF;}
	.st1{fill:url(#SVGID_1_);}
	.st2{fill:url(#SVGID_2_);}
	.st3{fill:#F7F8F9;}
</style><path
     style="fill:#ffffff"
     inkscape:connector-curvature="0"
     class="st3"
     d="m 19.657581,5.904506 c 1.1,-0.5 2.2,-1 3.2,-1.4 0.3,-0.1 0.7,-0.1 1,-0.3 0.7,-0.2 1.5,-0.4 2.2,-0.6 0,0 0.1,0 0.1,0 0.1,0 0.2,0 0.2,-0.1 1.2,-0.3 2.3,-0.4 3.5,-0.6 1.9,-0.2 3.9,-0.3 5.8,-0.1 3.1,0.2 6.1,0.9 8.9,2 3.1,1.2 6,2.9 8.6,5.1 0.1,0.1 0.2,0.2 0.3,0.2 0,0 0,0 0,0 0.3,0.2 0.6,0.5 0.8,0.7 1.5,1.5 2.9,3 4.1,4.7 2.9,4 4.7,8.4 5.5,13.200005 0.6,3.8 0.5,7.6 -0.3,11.3 0,0.1 0,0.2 0,0.3 0,0 0,0 0,0 -0.2,0.8 -0.4,1.5 -0.6,2.3 0,0 0,0.1 0,0.1 -0.1,0.3 -0.2,0.6 -0.3,0.9 0,0 0,0 0,0 -0.1,0.2 -0.2,0.4 -0.2,0.6 0,0 0,0 0,0 -0.2,0.6 -0.5,1.2 -0.7,1.8 v 0 c 0,0 0,0 0,0 -0.2,0.3 -0.3,0.7 -0.5,1 0,0 0,0.1 -0.1,0.1 -0.3,0.6 -0.7,1.3 -1,1.9 -0.1,0 -0.1,0.1 -0.1,0.1 -1,1.6 -2.1,3.1 -3.3,4.6 -3,3.5 -6.7,6.2 -10.9,8 -3.1,1.4 -6.3,2.2 -9.6,2.5 -1.1,0.1 -2.2,0.1 -3.4,0.1 -0.3,0 -0.6,0 -0.9,0 -0.1,0 -0.1,0 -0.2,0 -1.2,0 -2.4,-0.2 -3.7,-0.4 -0.6,-0.1 -1.2,-0.3 -1.8,-0.4 -0.9,-0.2 -1.8,-0.5 -2.6,-0.8 -0.5,-0.2 -0.9,-0.3 -1.4,-0.5 -0.3,-0.1 -0.7,-0.3 -1,-0.4 -0.8,-0.4 -1.6,-0.7 -2.3,-1.1 0,0 0,0 -0.1,0 0,-0.1 -0.1,-0.1 -0.2,-0.1 0,0 -0.1,-0.1 -0.1,-0.1 v 0 c 0,-0.1 -0.1,-0.1 -0.2,-0.1 -0.1,-0.1 -0.2,-0.2 -0.3,-0.2 -0.1,-0.1 -0.2,-0.1 -0.2,-0.2 -0.1,0 -0.2,-0.1 -0.2,-0.1 -0.1,-0.2 -0.3,-0.2 -0.5,-0.3 0,0 -0.1,0 -0.1,0 -0.2,-0.1 -0.4,-0.3 -0.7,-0.4 0,0 0,0 -0.1,0 -1,-0.8 -2,-1.5 -2.9,-2.3 -3.3999996,-2.9 -5.9999996,-6.4 -7.8999996,-10.4 -0.3,-0.6 -0.5,-1.2 -0.8,-1.8 -0.3,-0.3 -0.1,-0.8 -0.4,-1.2 -0.5,-1.4 -0.8,-2.8 -1.1,-4.2 0,-0.1 0,-0.1 0,-0.2 0,-0.1 0,-0.1 -0.1,-0.2 0,-0.3 -0.1,-0.5 -0.1,-0.8 0,-0.1 0,-0.1 0,-0.2 0,0 0,-0.1 0,-0.1 0,-0.3 0,-0.5 -0.1,-0.8 0,-0.5 -0.1,-1 -0.1,-1.5 0,-0.1 0,-0.1 0,-0.2 0,-0.8 0,-1.6 -0.1,-2.3 0,-0.1 0,-0.1 0,-0.2 0.1,-0.4 0.1,-0.7 0.1,-1.1 0,-0.1 0,-0.2 0,-0.3 0,0 0,-0.1 0,-0.1 0,-0.1 0,-0.3 0,-0.4 0,0 0,0 0,-0.1 0,0 0,0 0,0 0.1,-0.1 0.1,-0.2 0,-0.3 0,0 0,-0.1 0,-0.1 0,0 0,-0.1 0,-0.1 0,-0.1 0,-0.1 0,-0.2 0,-0.1 0,-0.1 0,-0.2 0.2,-0.1 0.1,-0.4 0.2,-0.7 0.3,-1.500005 0.5,-2.900005 1,-4.400005 1.2,-4 3,-7.5 5.6,-10.8 0.1,-0.1 0.1,-0.2 0.1,-0.2 v 0 c 0.4999996,-0.6 0.9999996,-1.2 1.5999996,-1.7 0.9,-0.8 1.7,-1.6 2.6,-2.4 0.1,-0.1 0.2,-0.2 0.3,-0.3 0.4,-0.3 0.8,-0.5 1,-0.9 0.2,-0.1 0.4,-0.2 0.6,-0.3 0.5,-0.4 1.1,-0.7 1.6,-1.1 0.2,0 0.4,-0.1 0.6,-0.3 0.4,-0.2 0.9,-0.5 1.3,-0.7 0.2,0 0.3,-0.1 0.4,-0.2 z m -6.8,9.1 c -0.1,0.1 -0.2,0.2 -0.3,0.4 -3.5999996,4.2 -5.7999996,9 -6.4999996,14.500005 -0.4,2.9 -0.3,5.8 0.3,8.7 0.9,4.9 3.1,9.3 6.2999996,13.1 0.2,0.3 0.3,0.3 0.6,0 5.9,-6 11.9,-11.9 17.8,-17.9 0.3,-0.3 0.3,-0.4 0,-0.7 -3,-3 -5.9,-5.900005 -8.9,-8.900005 -3,-3 -6,-6 -9,-9 -0.1,0 -0.2,-0.1 -0.3,-0.2 z m 48.4,19.200005 c 0,-2.4 -0.2,-4.1 -0.5,-5.8 -1,-4.900005 -3.1,-9.200005 -6.3,-13.000005 -0.2,-0.2 -0.3,-0.3 -0.6,0 -1.6,1.6 -3.1,3.1 -4.7,4.7 -4.4,4.4 -8.8,8.800005 -13.2,13.200005 -0.2,0.2 -0.4,0.3 -0.1,0.6 6,6 12,12 18,18 0.2,0.2 0.3,0.2 0.5,0 4.6,-5.4 6.8,-11.5 6.9,-17.7 z m -29.3,-4.4 c 0.1,-0.1 0.1,-0.1 0.1,-0.2 0,-3.200005 0,-6.400005 0,-9.500005 0,-0.2 -0.1,-0.3 -0.2,-0.4 -3.6,-3.6 -7.1,-7.1 -10.7,-10.7 -0.2,-0.2 -0.3,-0.2 -0.5,-0.1 -1.9,1 -3.7,2.2 -5.3,3.6 -0.3,0.3 -0.3,0.4 0,0.6 4.1,4.1 8.2,8.2 12.3,12.3 1.4,1.5 2.8,3.000005 4.3,4.400005 z m 3,0.1 c 0,0 0.1,0 0.1,0.1 0.1,-0.1 0.1,-0.2 0.2,-0.2 5.5,-5.500005 11,-11.000005 16.5,-16.500005 0.2,-0.2 0.2,-0.4 0,-0.6 -1.6,-1.4 -3.3,-2.6 -5.2,-3.6 -0.3,-0.2 -0.4,-0.2 -0.6,0 -3.5,3.6 -7.1,7.1 -10.6,10.6 -0.2,0.2 -0.3,0.4 -0.3,0.7 0,3 0,6 0,9.000005 -0.1,0.2 -0.1,0.3 -0.1,0.5 z m -3,7.3 c -0.1,0.1 -0.2,0.2 -0.3,0.2 -5.5,5.5 -10.9,10.9 -16.4,16.4 -0.2,0.2 -0.3,0.3 0,0.5 1.6,1.4 3.4,2.6 5.3,3.6 0.2,0.1 0.3,0.1 0.5,-0.1 3.6,-3.6 7.2,-7.2 10.7,-10.7 0.1,-0.1 0.2,-0.2 0.2,-0.4 0,-3.1 0,-6.2 0,-9.5 z m 3.1,-0.1 c 0,0.1 -0.1,0.2 -0.1,0.2 0,3.1 0,6.2 0,9.3 0,0.2 0.1,0.3 0.2,0.5 3.6,3.6 7.2,7.2 10.8,10.8 0.2,0.2 0.4,0.3 0.6,0.1 1.8,-1 3.4,-2.1 5,-3.4 0.4,-0.3 0.4,-0.4 0,-0.8 -4.5,-4.6 -9,-9.2 -13.6,-13.7 -1,-1 -1.9,-2 -2.9,-3 z m 0,14.1 c 0,0 -0.1,0 0,0 0,3.3 0,6.5 0,9.7 0,0.3 0.1,0.3 0.3,0.3 1.5,-0.1 2.9,-0.3 4.4,-0.6 1.2,-0.3 2.4,-0.6 3.6,-1.1 -2.8,-2.8 -5.6,-5.5 -8.3,-8.3 z m 8.1,-43.700005 c 0,0 -0.1,0 -0.1,-0.1 -2.5,-0.9 -5,-1.4 -7.6,-1.6 -0.4,0 -0.5,0 -0.5,0.4 0,3 0,6.1 0,9.1 0,0.1 0,0.2 0,0.3 2.8,-2.6 5.5,-5.3 8.2,-8.1 z m -11.2,43.900005 c -2.7,2.7 -5.4,5.4 -8.1,8.1 0,0 0,0 0.1,0 2.4,0.9 4.9,1.4 7.5,1.6 0.6,0 0.6,0 0.6,-0.6 0,-2.8 0,-5.6 0,-8.4 -0.1,-0.2 -0.1,-0.4 -0.1,-0.7 z m 0,-35.900005 c 0,0 0,0 0,0 0,-3.2 0,-6.3 0,-9.4 0,-0.2 -0.1,-0.3 -0.3,-0.2 -1.4,0.1 -2.9,0.3 -4.3,0.6 -1.2,0.3 -2.3,0.6 -3.4,1 2.7,2.7 5.3,5.3 8,8 z"
     id="path840" /></svg>