<?xml version="1.0" encoding="UTF-8" standalone="no"?>
<!-- Roman Inozemtsev: https://github.com/mir-one/  -->

<svg
   xmlns:dc="http://purl.org/dc/elements/1.1/"
   xmlns:cc="http://creativecommons.org/ns#"
   xmlns:rdf="http://www.w3.org/1999/02/22-rdf-syntax-ns#"
   xmlns:svg="http://www.w3.org/2000/svg"
   xmlns="http://www.w3.org/2000/svg"
   xmlns:sodipodi="http://sodipodi.sourceforge.net/DTD/sodipodi-0.dtd"
   xmlns:inkscape="http://www.inkscape.org/namespaces/inkscape"
   version="1.1"
   id="Слой_1"
   x="0px"
   y="0px"
   viewBox="0 0 66.900875 67"
   xml:space="preserve"
   sodipodi:docname="wB-bg-HORSE.svg"
   inkscape:version="0.92.3 (2405546, 2018-03-11)"
   width="66.900879"
   height="67"><metadata
     id="metadata27"><rdf:RDF><cc:Work
         rdf:about=""><dc:format>image/svg+xml</dc:format><dc:type
           rdf:resource="http://purl.org/dc/dcmitype/StillImage" /></cc:Work></rdf:RDF></metadata><defs
     id="defs25">
	
	
	
	
	
	
	
</defs><sodipodi:namedview
     pagecolor="#ffffff"
     bordercolor="#666666"
     borderopacity="1"
     objecttolerance="10"
     gridtolerance="10"
     guidetolerance="10"
     inkscape:pageopacity="0"
     inkscape:pageshadow="2"
     inkscape:window-width="1366"
     inkscape:window-height="691"
     id="namedview23"
     showgrid="false"
     inkscape:zoom="5.1744869"
     inkscape:cx="34.977164"
     inkscape:cy="37.815578"
     inkscape:window-x="0"
     inkscape:window-y="0"
     inkscape:window-maximized="1"
     inkscape:current-layer="Слой_1" /><style
     type="text/css"
     id="style2">
	.st0{fill:#3F61AC;}
	.st1{fill:#FFFFFF;}
	.st2{fill:#2B388F;}
	.st3{fill:#58595B;}
</style><path
     style="fill:#806600;fill-opacity:1"
     d="M 33.5,0 C 15,0 0,15 0,33.5 0,52 15,67 33.5,67 c 1.2,0 2.30039,-0.101172 3.40039,-0.201172 15.1,-1.5 27.19961,-13.100391 29.59961,-27.900391 l -0.0879,-0.08789 C 66.70388,37.043464 66.90038,35.368649 66.90038,33.5 67.00038,15 51.99999,0 33.49999,0 Z m 0,2.5996094 C 50.6,2.5996094 64.40039,16.5 64.40039,33.5 c 0,1.1 -0.10117,2.099219 -0.20117,3.199219 l 0.0898,0.08789 C 62.74886,52.044523 50.06989,63.899401 34.49995,64.398437 h -1 C 16.39995,64.398437 2.59956,50.5 2.59956,33.5 2.59956,16.4 16.49995,2.5996094 33.49995,2.5996094 Z"
     id="path839"
     inkscape:connector-curvature="0" /><path
     style="fill:#806600;fill-opacity:1"
     d="m 33.437938,4.5067207 c -7.425,0 -14.85,2.8265626 -20.5,8.4765623 -11.2999991,11.3 -11.2999991,29.7 0,41 5.4,5.4 12.49961,8.2 19.59961,8.5 7.7,0.2 15.50039,-2.6 21.40039,-8.5 5.3,-5.3 8.1,-12.201172 8.5,-19.201172 l -0.0977,-0.0957 c 0.37234,-7.769744 -2.42684,-15.727622 -8.40235,-21.703125 -5.65,-5.6499997 -13.075,-8.4765623 -20.5,-8.4765623 z"
     id="path841"
     inkscape:connector-curvature="0" /><path
     style="fill:#ffffff"
     inkscape:connector-curvature="0"
     class="st2"
     d="m 33.400438,2.6 c -17.1,0 -30.8999997,13.8 -30.8999997,30.9 0,17.1 13.8999997,30.9 30.8999997,30.9 0.3,0 0.700001,0 1,-0.1 15.600001,-0.5 28.200001,-12.5 29.8,-27.7 0.1,-1 0.200001,-2.1 0.200001,-3.2 -0.1,-17 -13.9,-30.8000001 -31.000001,-30.8 z m 20.5,51.4 c -5.899999,5.9 -13.7,8.7 -21.399999,8.5 -7.100001,-0.2 -14.2,-3 -19.6,-8.5 -11.3000007,-11.3 -11.3000007,-29.7 0,-41 11.299999,-11.3 29.7,-11.3 40.999999,0 6,6 8.8,14 8.4,21.8 -0.299999,7 -3.1,13.9 -8.4,19.2 z"
     id="path845" /><style
     id="style2-6"
     type="text/css">
	.st0{fill:#ED443E;}
	.st1{fill:#C2232F;}
</style><style
     id="style837"
     type="text/css">
	.st0{fill:#F6921E;}
	.st1{fill:#F05A28;}
	.st2{fill:#FFFFFF;}
	.st3{fill:#58595B;}
</style><style
     id="style2-3"
     type="text/css">
	.st0{fill:#ED443E;}
	.st1{fill:#C2232F;}
</style><g
     style="fill:#ffffff;stroke-width:7.19608355"
     id="g836"
     transform="matrix(0.41689342,0,0,0.41689342,12.605689,12.587513)"><path
       id="path822"
       d="m 32.585,66.454 c -1.019,2.077 -3.816,6.901 -8.568,8.813 v 17.299 c 0,1.432 1.161,2.593 2.593,2.593 1.432,0 2.593,-1.161 2.593,-2.593 V 75.257 c 3.649,-0.353 7.62,-2.058 10.609,-5.008 -3.664,-1.128 -6.071,-2.83 -7.227,-3.795 z"
       inkscape:connector-curvature="0"
       style="fill:#ffffff;stroke-width:7.19608355" /><path
       id="path824-3"
       d="M 93.853,21.727 C 93.577,21.451 93.265,21.232 92.934,21.066 L 79.735,11.58 c 0.073,-0.021 0.147,-0.044 0.224,-0.073 l 0.159,-0.06 C 81.489,10.934 81.84,9.452 81.458,8.118 81.076,6.784 80.433,5.78 80.433,5.78 80.026,5.021 79.043,4.766 78.749,6.199 l -0.746,3.635 c -0.033,0.164 -0.049,0.317 -0.054,0.462 L 77.947,10.294 C 63.176,13.146 55.617,28.091 54.593,41.416 H 32.796 32.031 18.456 c -0.613,0 -1.246,0 -1.835,0 -1.442,0 -5.296,0.725 -8.148,4.269 -1.071,1.33 -2,3.056 -2.609,5.29 -0.473,1.737 -0.752,3.782 -0.752,6.185 v 6.249 h 10.116 c 0,0 0,-9.19 0,-9.32 0,-3.074 1.152,-9.898 6.009,-9.898 h 1.628 c -2.618,1.97 -4.216,4.902 -4.216,8.518 v 15.387 c -0.473,-0.504 -1.144,-0.82 -1.89,-0.82 -1.432,0 -2.593,1.16 -2.593,2.593 v 22.697 c 0,1.432 1.161,2.593 2.593,2.593 1.432,0 2.593,-1.161 2.593,-2.593 V 75.31 c 0,0 0.001,0 0.001,0 0.004,-0.403 0.2,-0.728 0.605,-0.728 7.794,0 11.644,-9.546 11.683,-9.643 0.094,-0.235 0.302,-0.406 0.551,-0.453 0.249,-0.047 0.505,0.035 0.679,0.22 0.046,0.047 4.438,4.553 12.92,5.123 l 17.883,0.078 v 22.658 c 0,1.432 1.161,2.593 2.593,2.593 1.433,0 2.593,-1.161 2.593,-2.593 V 69.931 l 3.944,0.017 v 22.618 c 0,1.432 1.16,2.593 2.593,2.593 1.432,0 2.593,-1.161 2.593,-2.593 V 63.629 c 0,-0.153 -0.016,-0.304 -0.042,-0.45 V 44.744 23.058 c 0.428,0.47 0.925,0.893 1.491,1.251 1.811,1.15 5.28,1.535 8.502,0.829 0.154,0.582 0.457,1.132 0.912,1.588 1.381,1.38 3.62,1.38 5,0 1.381,-1.381 1.38,-3.62 0,-4.999 z"
       inkscape:connector-curvature="0"
       style="fill:#ffffff;stroke-width:7.19608355" /></g></svg>