<?xml version="1.0" encoding="UTF-8" standalone="no"?>
<!-- Roman Inozemtsev: https://github.com/mir-one/  -->

<svg
   xmlns:dc="http://purl.org/dc/elements/1.1/"
   xmlns:cc="http://creativecommons.org/ns#"
   xmlns:rdf="http://www.w3.org/1999/02/22-rdf-syntax-ns#"
   xmlns:svg="http://www.w3.org/2000/svg"
   xmlns="http://www.w3.org/2000/svg"
   xmlns:sodipodi="http://sodipodi.sourceforge.net/DTD/sodipodi-0.dtd"
   xmlns:inkscape="http://www.inkscape.org/namespaces/inkscape"
   version="1.1"
   id="Слой_1"
   x="0px"
   y="0px"
   viewBox="0 0 66.900879 67"
   xml:space="preserve"
   sodipodi:docname="wB-bg-QUEST(копировать).svg"
   inkscape:version="0.92.3 (2405546, 2018-03-11)"
   width="66.900879"
   height="67"><metadata
     id="metadata19"><rdf:RDF><cc:Work
         rdf:about=""><dc:format>image/svg+xml</dc:format><dc:type
           rdf:resource="http://purl.org/dc/dcmitype/StillImage" /></cc:Work></rdf:RDF></metadata><defs
     id="defs17" /><sodipodi:namedview
     pagecolor="#ffffff"
     bordercolor="#666666"
     borderopacity="1"
     objecttolerance="10"
     gridtolerance="10"
     guidetolerance="10"
     inkscape:pageopacity="0"
     inkscape:pageshadow="2"
     inkscape:window-width="1366"
     inkscape:window-height="691"
     id="namedview15"
     showgrid="false"
     inkscape:zoom="3.5223881"
     inkscape:cx="-11.334589"
     inkscape:cy="33.698946"
     inkscape:window-x="0"
     inkscape:window-y="0"
     inkscape:window-maximized="1"
     inkscape:current-layer="Слой_1" /><style
     type="text/css"
     id="style2">
	.st0{fill:#F05A28;}
	.st1{fill:#C44827;}
	.st2{fill:#FFFFFF;}
</style><path
     style="fill:#0055d4;fill-opacity:1"
     d="M 33.5,0 C 15,0 0,15 0,33.5 0,52 15,67.000001 33.5,67.000001 c 1.2,0 2.30039,-0.10117 3.40039,-0.20117 15.1,-1.5 27.19961,-13.100394 29.59961,-27.900394 l -0.0879,-0.08789 C 66.70388,37.043464 66.90038,35.368649 66.90038,33.5 67.00038,15 51.99999,0 33.49999,0 Z m 0,2.59961 c 17.1,0 30.90039,13.90039 30.90039,30.90039 0,1.1 -0.10117,2.099219 -0.20117,3.199219 l 0.0898,0.08789 C 62.74886,52.044523 50.06989,63.899401 34.49995,64.398441 h -1 C 16.39995,64.398441 2.59956,50.5 2.59956,33.5 2.59956,16.4 16.49995,2.59961 33.49995,2.59961 Z"
     id="path839"
     inkscape:connector-curvature="0" /><path
     style="fill:#0055d4;fill-opacity:1"
     d="m 33.437939,4.5067229 c -7.425,0 -14.85,2.826563 -20.5,8.4765621 -11.3000005,11.3 -11.3000005,29.7 0,41 5.4,5.399997 12.49961,8.199997 19.59961,8.499997 7.7,0.2 15.50039,-2.6 21.40039,-8.499997 5.3,-5.3 8.1,-12.201172 8.5,-19.201172 l -0.0977,-0.0957 c 0.37234,-7.769744 -2.42684,-15.727622 -8.40235,-21.703125 -5.65,-5.6499991 -13.075,-8.4765621 -20.5,-8.4765621 z"
     id="path841"
     inkscape:connector-curvature="0" /><path
     style="fill:#ffffff"
     inkscape:connector-curvature="0"
     class="st2"
     d="M 33.400439,2.6000005 C 16.300439,2.6000005 2.5004385,16.4 2.5004385,33.5 c 0,17.1 13.9000005,30.900001 30.9000005,30.900001 0.3,0 0.7,0 1,-0.1 15.6,-0.5 28.2,-12.500001 29.8,-27.700001 0.1,-1 0.2,-2.1 0.2,-3.2 -0.1,-17 -13.9,-30.8000005 -31,-30.7999995 z M 53.900439,54 c -5.9,5.900001 -13.7,8.700001 -21.4,8.500001 -7.1,-0.2 -14.2,-3 -19.6,-8.500001 -11.3000005,-11.3 -11.3000005,-29.7 0,-41 11.3,-11.2999995 29.7,-11.2999995 41,0 6,6 8.8,14 8.4,21.8 -0.3,7 -3.1,13.9 -8.4,19.2 z"
     id="path845" /><path
     inkscape:connector-curvature="0"
     d="M 33.450439,48.352966 31.103104,46.216083 C 22.766017,38.656044 17.26192,33.66998 17.26192,27.55072 c 0,-4.986064 3.917622,-8.903685 8.903686,-8.903685 2.816802,0 5.520285,1.31127 7.284833,3.3834 1.764549,-2.07213 4.468032,-3.3834 7.284834,-3.3834 4.986064,0 8.903685,3.917621 8.903685,8.903685 0,6.11926 -5.504096,11.105324 -13.841183,18.68155 z"
     id="path821"
     style="fill:#ffffff;stroke-width:1" /></svg>