<?xml version="1.0" encoding="UTF-8" standalone="no"?>
<!-- Roman Inozemtsev: https://github.com/mir-one/  -->

<svg
   xmlns:dc="http://purl.org/dc/elements/1.1/"
   xmlns:cc="http://creativecommons.org/ns#"
   xmlns:rdf="http://www.w3.org/1999/02/22-rdf-syntax-ns#"
   xmlns:svg="http://www.w3.org/2000/svg"
   xmlns="http://www.w3.org/2000/svg"
   xmlns:sodipodi="http://sodipodi.sourceforge.net/DTD/sodipodi-0.dtd"
   xmlns:inkscape="http://www.inkscape.org/namespaces/inkscape"
   version="1.1"
   id="Слой_1"
   x="0px"
   y="0px"
   viewBox="0 0 66.900696 67.000098"
   xml:space="preserve"
   sodipodi:docname="wB-bg-XAK.svg"
   inkscape:version="0.92.3 (2405546, 2018-03-11)"
   width="66.900696"
   height="67.000099"><metadata
     id="metadata22"><rdf:RDF><cc:Work
         rdf:about=""><dc:format>image/svg+xml</dc:format><dc:type
           rdf:resource="http://purl.org/dc/dcmitype/StillImage" /></cc:Work></rdf:RDF></metadata><defs
     id="defs20"><style
       id="style829">.cls-1,.cls-3{fill:#0056ff;}.cls-1{fill-rule:evenodd;}.cls-2{fill:#fff;}.cls-4{fill:none;}</style><linearGradient
       y2="0.8933"
       x2="33.5"
       y1="67.893303"
       x1="33.5"
       gradientUnits="userSpaceOnUse"
       id="SVGID_1_"><stop
         id="stop4"
         style="stop-color:#2B388F"
         offset="0" /><stop
         id="stop6"
         style="stop-color:#EB008B"
         offset="1" /></linearGradient><style
       id="style836">.cls-1,.cls-3{fill:#0056ff;}.cls-1{fill-rule:evenodd;}.cls-2{fill:#fff;}.cls-4{fill:none;}</style></defs><sodipodi:namedview
     pagecolor="#ffffff"
     bordercolor="#666666"
     borderopacity="1"
     objecttolerance="10"
     gridtolerance="10"
     guidetolerance="10"
     inkscape:pageopacity="0"
     inkscape:pageshadow="2"
     inkscape:window-width="1366"
     inkscape:window-height="691"
     id="namedview18"
     showgrid="false"
     inkscape:zoom="0.22014925"
     inkscape:cx="278.28089"
     inkscape:cy="792.406"
     inkscape:window-x="0"
     inkscape:window-y="0"
     inkscape:window-maximized="1"
     inkscape:current-layer="Слой_1" /><style
     type="text/css"
     id="style2">
	.st0{fill:url(#SVGID_1_);}
	.st1{fill:#FFFFFF;}
</style><style
     id="style912"
     type="text/css">
	.st0{fill:#3F61AC;}
	.st1{fill:#FFFFFF;}
	.st2{fill:#2B388F;}
	.st3{fill:#58595B;}
</style><style
     id="style954"
     type="text/css">
	.st0{fill:#00AEEF;}
	.st1{fill:#FFFFFF;}
</style><style
     id="style2-67"
     type="text/css">
	.st0{fill:#3F61AC;}
	.st1{fill:#FFFFFF;}
	.st2{fill:#2B388F;}
	.st3{fill:#58595B;}
</style><style
     type="text/css"
     id="style2-6">
	.st0{fill:#ED443E;}
	.st1{fill:#C2232F;}
</style><style
     type="text/css"
     id="style837">
	.st0{fill:#F6921E;}
	.st1{fill:#F05A28;}
	.st2{fill:#FFFFFF;}
	.st3{fill:#58595B;}
</style><style
     type="text/css"
     id="style2-3">
	.st0{fill:#ED443E;}
	.st1{fill:#C2232F;}
</style><path
     style="fill:#4d4d4d;fill-opacity:1"
     d="m 33.5,1e-4 c -18.5,0 -33.5,15 -33.5,33.5 0,18.5 15,33.5 33.5,33.5 1.2,0 2.3003,-0.1012 3.4003,-0.2012 15.1,-1.5 27.1997,-13.1004 29.5997,-27.9004 l -0.088,-0.088 C 66.7037,37.0434 66.9002,35.3686 66.9002,33.5 67.0002,15 51.9998,0 33.4998,0 Z m 0,2.5996 c 17.1,0 30.9003,13.9004 30.9003,30.9004 0,1.1 -0.1011,2.0992 -0.2011,3.1992 l 0.09,0.088 C 62.749,52.0447 50.07,63.8996 34.5001,64.3986 h -1 c -17.1,0 -30.9004,-13.8984 -30.9004,-30.8984 0,-17.1 13.9004,-30.9004 30.9004,-30.9004 z"
     id="path839"
     inkscape:connector-curvature="0" /><path
     style="fill:#4d4d4d;fill-opacity:1"
     d="m 33.4379,4.5068 c -7.425,0 -14.85,2.8265 -20.5,8.4765 -11.3,11.3 -11.3,29.7 0,41 5.4,5.4 12.4996,8.2 19.5996,8.5 7.7,0.2 15.5004,-2.6 21.4004,-8.5 5.3,-5.3 8.1,-12.2011 8.5,-19.2011 l -0.098,-0.096 c 0.3723,-7.7698 -2.4269,-15.7276 -8.4024,-21.7031 -5.65,-5.65 -13.075,-8.4766 -20.5,-8.4766 z"
     id="path841"
     inkscape:connector-curvature="0" /><path
     style="fill:#ffffff"
     inkscape:connector-curvature="0"
     class="st2"
     d="m 33.4004,2.6001 c -17.1,0 -30.9,13.8 -30.9,30.9 0,17.1 13.9,30.9 30.9,30.9 0.3,0 0.7,0 1,-0.1 15.6,-0.5 28.2,-12.5 29.8,-27.7 0.1,-1 0.2,-2.1 0.2,-3.2 -0.1,-17 -13.9,-30.8 -31,-30.8 z m 20.5,51.4 c -5.9,5.9 -13.7,8.7 -21.4,8.5 -7.1,-0.2 -14.2,-3 -19.6,-8.5 -11.3,-11.3 -11.3,-29.7 0,-41 11.3,-11.3 29.7,-11.3 41,0 6,6 8.8,14 8.4,21.8 -0.3,7 -3.1,13.9 -8.4,19.2 z"
     id="path845" /><path
     inkscape:connector-curvature="0"
     d="m 40.7858,19.2316 c -2.7844,0 -5.3368,0.9869 -7.3385,2.6329 -1.9986,-1.646 -4.548,-2.6329 -7.3262,-2.6329 -6.4074,0 -11.5988,5.241 -11.5988,11.7102 0,5.8783 4.2911,10.7449 9.8848,11.5802 v 0 c 4.0003,1.2994 7.2767,4.3221 9.0464,8.2451 1.7696,-3.923 5.046,-6.9488 9.0494,-8.2451 5.5999,-0.8384 9.8972,-5.7019 9.8972,-11.5802 0,-6.4692 -5.2007,-11.7102 -11.6143,-11.7102 z m -5.5039,19.4448 -2.0543,-3.5487 -8.1368,4.681 7.2643,-12.694 2.0544,3.5486 8.1367,-4.6809 z"
     id="path2"
     style="fill:#ffffff;stroke-width:0.99999994" /></svg>