<?xml version="1.0" encoding="UTF-8" standalone="no"?>
<!-- Roman Inozemtsev: https://github.com/mir-one/  -->

<svg
   xmlns:dc="http://purl.org/dc/elements/1.1/"
   xmlns:cc="http://creativecommons.org/ns#"
   xmlns:rdf="http://www.w3.org/1999/02/22-rdf-syntax-ns#"
   xmlns:svg="http://www.w3.org/2000/svg"
   xmlns="http://www.w3.org/2000/svg"
   xmlns:sodipodi="http://sodipodi.sourceforge.net/DTD/sodipodi-0.dtd"
   xmlns:inkscape="http://www.inkscape.org/namespaces/inkscape"
   version="1.1"
   id="Слой_1"
   x="0px"
   y="0px"
   viewBox="0 0 66.97765 67"
   xml:space="preserve"
   sodipodi:docname="wB-bg-OK.svg"
   inkscape:version="0.92.3 (2405546, 2018-03-11)"
   width="66.977654"
   height="67"><metadata
     id="metadata27"><rdf:RDF><cc:Work
         rdf:about=""><dc:format>image/svg+xml</dc:format><dc:type
           rdf:resource="http://purl.org/dc/dcmitype/StillImage" /></cc:Work></rdf:RDF></metadata><defs
     id="defs25">
	
	
	
	
	
	
	
</defs><sodipodi:namedview
     pagecolor="#ffffff"
     bordercolor="#666666"
     borderopacity="1"
     objecttolerance="10"
     gridtolerance="10"
     guidetolerance="10"
     inkscape:pageopacity="0"
     inkscape:pageshadow="2"
     inkscape:window-width="1366"
     inkscape:window-height="691"
     id="namedview23"
     showgrid="false"
     inkscape:zoom="3.6589148"
     inkscape:cx="9.4778191"
     inkscape:cy="39.092415"
     inkscape:window-x="0"
     inkscape:window-y="0"
     inkscape:window-maximized="1"
     inkscape:current-layer="Слой_1" /><style
     type="text/css"
     id="style2">
	.st0{fill:#3F61AC;}
	.st1{fill:#FFFFFF;}
	.st2{fill:#2B388F;}
	.st3{fill:#58595B;}
</style><g
     id="g863"
     transform="matrix(1.1078536,0,0,1.1078536,92.222066,-7.8726471)"
     style="stroke-width:0.90264636"><path
       style="fill:#d8f2f1;stroke-width:0.9026463"
       d="m -54.614247,67.543374 c -9.64106,-0.492875 -18.44897,-5.534866 -23.75516,-13.598391 -2.17912,-3.311481 -3.52677,-6.541962 -4.37609,-10.489991 -0.33188,-1.542716 -0.26441,-1.644938 0.61263,-0.928276 2.04648,1.672239 4.79682,2.945152 7.60637,3.520375 2.00593,0.410697 2.98346,0.493039 5.9629,0.50227 2.89132,0.009 3.32406,-0.02364 6.60348,-0.497311 4.95652,-0.715918 11.92373,-2.400478 19.06801,-4.610341 2.08851,-0.646019 5.34444,-1.511377 6.91867,-1.838841 0.53583,-0.111454 1.47321,-0.305566 2.08306,-0.431357 3.13413,-0.646447 6.47808,-0.94396 8.80086,-0.783015 1.501233,0.104022 2.029475,0.194224 2.213164,0.37791 0.138568,0.138567 0.122635,0.540461 -0.09184,2.316658 -0.657817,5.447771 -2.887044,10.706674 -6.429344,15.167271 -0.94573,1.190893 -3.44315,3.687504 -4.66389,4.662364 -5.85111,4.672586 -13.10128,7.01161 -20.55282,6.630675 z m 4.9233,-0.271608 c 2.60043,-0.308784 4.84028,-0.840653 7.14052,-1.695584 9.75478,-3.625546 16.97533,-12.036211 19.072324,-22.215881 0.291892,-1.416967 0.490434,-2.924973 0.503375,-3.823317 l 0.01026,-0.71205 -0.377774,-0.09399 c -0.207779,-0.0517 -1.003495,-0.136926 -1.768255,-0.189394 -2.18305,-0.149774 -5.23141,0.08969 -7.9969,0.628207 -3.89166,0.757813 -6.52034,1.419305 -10.68341,2.688414 -9.61816,2.9321 -17.71677,4.617445 -23.36612,4.862555 -1.49755,0.06497 -4.57794,-0.07812 -5.91913,-0.274961 -2.0065,-0.294495 -3.78065,-0.777324 -5.20464,-1.416439 -1.39741,-0.627181 -3.17185,-1.705043 -3.98438,-2.42027 -0.6224,-0.547858 -0.63526,-0.47984 -0.24213,1.280497 2.62711,11.763525 12.08689,20.872402 23.94652,23.058253 1.01625,0.187302 2.73548,0.404109 3.71201,0.4681 0.95518,0.0626 4.17435,-0.02736 5.15774,-0.144136 z m -20.67004,-21.664313 c -1.7981,-0.08414 -4.25913,-0.439475 -5.87221,-0.847874 -1.47332,-0.373011 -3.36663,-1.127829 -3.77157,-1.503635 -0.13304,-0.123475 -0.48805,-0.371697 -0.78893,-0.551614 -0.84994,-0.508255 -1.92525,-1.281605 -2.08206,-1.49741 -0.18979,-0.261187 -0.29747,-1.22232 -0.35459,-3.164978 -0.12241,-4.162878 0.58132,-8.042584 2.20843,-12.175276 0.14889,-0.378176 0.3032,-0.747423 0.34292,-0.820551 0.0397,-0.07313 0.26602,-0.537382 0.50288,-1.031665 1.15587,-2.412011 2.41549,-4.313098 4.34945,-6.564398 1.80147,-2.09706 3.70749,-3.768141 6.09021,-5.339499 1.50179,-0.9904 1.61121,-1.055047 2.89211,-1.708643 2.78038,-1.4187237 4.95402,-2.1687136 8.10754,-2.7974245 1.89358,-0.3775115 3.2243,-0.4957581 5.60736,-0.4982432 3.63906,-0.00381 6.28216,0.4082575 9.61216,1.4985045 3.57553,1.1706382 7.40802,3.3415722 10.15389,5.7517332 2.2222,1.950515 3.86832,3.812961 5.40477,6.115023 3.16007,4.734731 4.858911,9.977758 5.078638,15.673844 0.0482,1.249486 0.0407,1.390486 -0.07634,1.435399 -0.07138,0.0274 -0.418913,0.0043 -0.772291,-0.05134 -1.237277,-0.194775 -4.122577,-0.08003 -6.894317,0.274175 -0.81664,0.104362 -1.57784,0.170915 -1.69154,0.147893 -0.2591,-0.05245 -2.72125,0.42372 -2.88009,0.557 -0.0645,0.0541 -0.75022,0.246453 -1.52388,0.427454 -0.77366,0.181008 -1.79349,0.43216 -2.26628,0.558109 -0.47279,0.125954 -1.54537,0.401642 -2.3835,0.612634 -1.88685,0.474999 -4.72522,1.230966 -6.32996,1.685902 -2.76045,0.782576 -6.00629,1.625005 -7.54124,1.957251 -2.09061,0.452522 -4.75997,0.97377 -5.93922,1.159754 -0.68769,0.108465 -1.81302,0.287562 -2.50072,0.398007 -1.65185,0.265278 -4.59647,0.397434 -6.68162,0.299865 z m 4.41534,-0.187221 c 0.77366,-0.0439 1.93415,-0.167773 2.57887,-0.275277 0.64472,-0.107503 1.64696,-0.265893 2.22721,-0.351974 0.58024,-0.08608 1.4594,-0.242408 1.95368,-0.347398 0.49429,-0.104983 1.85661,-0.385336 3.02738,-0.622996 1.17078,-0.237661 2.42057,-0.516695 2.77732,-0.620078 0.35675,-0.103383 1.42091,-0.384973 2.3648,-0.625763 1.78659,-0.455757 2.31181,-0.600754 3.55264,-0.980803 0.82578,-0.252923 3.67605,-1.004834 4.88423,-1.288474 0.42981,-0.100905 1.25622,-0.310549 1.83647,-0.465874 0.58024,-0.155329 1.9869,-0.513177 3.1259,-0.79523 1.139,-0.282052 2.12366,-0.539306 2.18813,-0.571688 0.0967,-0.04856 0.12095,-0.313872 0.13849,-1.515696 0.0117,-0.801256 0.0117,-1.464154 0,-1.473104 -0.0117,-0.0089 -0.95317,-0.03532 -2.09218,-0.05861 l -2.07091,-0.04234 -0.0391,-1.602023 -0.0391,-1.602032 h -1.56295 -1.56296 l -0.0391,3.672941 -0.0391,3.672939 -0.33212,0.02403 -0.33213,0.02403 V 30.62517 21.675522 l -0.16551,-0.08858 c -0.11987,-0.06415 -1.01963,-0.07508 -3.26267,-0.03961 -1.70343,0.02693 -3.17585,0.04797 -3.27204,0.04676 l -0.17489,-0.0022 -0.0205,2.950072 -0.0205,2.950076 -1.40089,0.02139 c -0.84921,0.01296 -1.44061,0.05437 -1.50177,0.105123 -0.068,0.05645 -0.10808,0.355023 -0.12299,0.916372 l -0.0221,0.832652 -0.66036,0.02296 c -0.36319,0.01261 -0.70607,0.06089 -0.76194,0.107259 -0.0792,0.06571 -0.10158,0.597364 -0.10158,2.410796 0,2.049372 -0.0147,2.332151 -0.12361,2.373935 -0.068,0.02608 -0.9577,0.04743 -1.97713,0.04743 -1.33743,0 -1.87964,-0.02611 -1.9473,-0.09378 -0.0667,-0.06673 -0.0938,-0.547716 -0.0938,-1.667627 v -1.573857 l -0.1925,-0.0877 c -0.18298,-0.08337 -0.19361,-0.125561 -0.21491,-0.852634 l -0.0224,-0.764919 h -0.82055 -0.82055 l -0.0222,0.793205 c -0.0215,0.769125 -0.028,0.794668 -0.21415,0.841388 l -0.19197,0.04818 -0.0203,3.769317 -0.0203,3.769325 -0.34392,0.02461 c -0.22224,0.0159 -0.36697,-0.01175 -0.40908,-0.07815 -0.0358,-0.05652 -0.0657,-1.760607 -0.0664,-3.786868 -10e-4,-4.050134 0.0328,-3.778981 -0.47478,-3.778981 h -0.22636 l -0.0212,-1.504343 -0.0212,-1.504346 -0.27321,-0.02592 c -0.44708,-0.04242 -0.46919,-0.09485 -0.46919,-1.112505 V 25.82043 l -0.3712,-0.02381 -0.37121,-0.02381 -0.0193,-0.468887 c -0.0106,-0.257887 -0.0386,-0.583174 -0.0622,-0.722862 l -0.0428,-0.253977 h -1.32348 c -1.52436,0 -1.38802,-0.08606 -1.4238,0.898693 l -0.0199,0.547033 -0.3712,0.02381 -0.3712,0.02381 v 0.923922 c 0,1.01765 -0.0221,1.070083 -0.4692,1.112505 l -0.2732,0.02592 -0.0212,1.504346 -0.0212,1.504343 h -0.21782 c -0.46945,0 -0.47853,0.034 -0.50085,1.875541 l -0.0203,1.680171 -2.57887,0.02095 c -2.32582,0.01888 -2.60371,0.0076 -2.832,-0.115006 l -0.25314,-0.135929 -0.0204,-3.245345 c -0.0178,-2.823593 -0.0356,-3.245346 -0.13761,-3.245346 -0.102,0 -0.11987,0.423505 -0.13761,3.261093 l -0.0204,3.261099 -0.22971,0.118788 c -0.13476,0.06969 -0.43478,0.118788 -0.72591,0.118788 -0.28174,0 -0.53674,0.04053 -0.58999,0.09378 -0.0683,0.06834 -0.0938,0.670213 -0.0938,2.218842 0,1.865696 -0.0151,2.130863 -0.12361,2.172505 -0.068,0.02609 -0.63065,0.04743 -1.25036,0.04743 h -1.12674 v 2.108672 2.108667 l 0.39742,0.201392 c 2.141,1.084925 5.13074,1.768777 8.84408,2.022931 1.48252,0.101473 2.33965,0.09415 4.70784,-0.04022 z m 35.15808,-7.731302 c 0.65243,-0.0867 1.88828,-0.200994 2.74634,-0.253978 l 1.56012,-0.09634 0.0393,-2.539797 c 0.0216,-1.396886 0.0695,-2.601787 0.10643,-2.677548 0.0402,-0.08252 0.0349,-0.176646 -0.0133,-0.234756 -0.0443,-0.05335 -0.0922,-0.219944 -0.10643,-0.370204 -0.0221,-0.232411 -0.0551,-0.273207 -0.22129,-0.273207 -0.16374,0 -0.20169,0.04428 -0.23444,0.273518 -0.0347,0.243128 -0.0651,0.273518 -0.27352,0.273518 h -0.23444 l -0.0209,-1.899407 c -0.0169,-1.529546 3.1e-4,-1.929899 0.0887,-2.056 0.0966,-0.137911 0.089,-0.195631 -0.0635,-0.484091 -0.19272,-0.364447 -0.35588,-0.416744 -0.47229,-0.151383 -0.0425,0.09687 -0.10841,0.165743 -0.14647,0.15306 -0.0381,-0.01268 -0.32112,-0.795269 -0.62904,-1.739078 -0.35963,-1.102333 -0.59725,-1.71601 -0.66444,-1.71601 -0.0672,0 -0.30414,0.61241 -0.66282,1.713248 -0.30702,0.942289 -0.60148,1.727675 -0.65436,1.7453 -0.0529,0.01762 -0.0961,-0.01935 -0.0961,-0.08212 0,-0.179336 -0.22276,-0.332538 -0.32902,-0.22628 -0.16229,0.16229 -0.29235,0.657409 -0.21209,0.80738 0.0438,0.08174 0.0663,0.931163 0.0541,2.037774 l -0.0209,1.897608 h -0.23444 c -0.20839,0 -0.23878,-0.03039 -0.27352,-0.273518 -0.0327,-0.229233 -0.0707,-0.273518 -0.23444,-0.273518 -0.17037,0 -0.2032,0.045 -0.25663,0.351663 -0.0337,0.193423 -0.056,0.404414 -0.0495,0.468885 0.006,0.06448 0.0255,1.348046 0.0424,2.852392 0.0169,1.504342 0.0468,2.779124 0.0666,2.832847 0.0457,0.124167 -1.7e-4,0.12613 1.40009,-0.05996 z m -6.68989,-3.855425 c 0.0146,-0.500581 -0.009,-0.808151 -0.0682,-0.879158 -0.0602,-0.07252 -0.2572,-0.109216 -0.58629,-0.109216 -0.61273,0 -0.65743,0.06297 -0.65743,0.926243 0,0.896982 -0.0125,0.881552 0.69335,0.854732 l 0.59608,-0.02265 z"
       id="path846"
       inkscape:connector-curvature="0" /><path
       style="fill:#7888a9;stroke-width:0.9026463"
       d="m -70.653487,45.460451 c -3.71334,-0.254154 -6.70308,-0.938006 -8.84408,-2.022931 l -0.39742,-0.201392 v -2.108672 -2.108667 h 1.12674 c 0.61971,0 1.18238,-0.02135 1.25037,-0.04743 0.10852,-0.04164 0.12361,-0.306809 0.12361,-2.172505 0,-1.548635 0.0254,-2.150504 0.0938,-2.218844 0.0533,-0.05325 0.30825,-0.09378 0.58999,-0.09378 0.29114,0 0.59115,-0.04909 0.72591,-0.118785 l 0.22971,-0.118787 0.0204,-3.2611 c 0.0177,-2.837591 0.0356,-3.261099 0.13761,-3.261099 0.10199,0 0.11987,0.42175 0.13761,3.245352 l 0.0204,3.245343 0.25314,0.135931 c 0.22829,0.122594 0.50618,0.133878 2.83201,0.115001 l 2.57886,-0.02092 0.0204,-1.680175 c 0.0223,-1.841536 0.0314,-1.875544 0.50084,-1.875544 h 0.21782 l 0.0212,-1.504336 0.0212,-1.504343 0.2732,-0.02592 c 0.44709,-0.04242 0.4692,-0.09485 0.4692,-1.112503 v -0.923921 l 0.3712,-0.02381 0.3712,-0.02381 0.0199,-0.54703 c 0.0358,-0.984753 -0.10055,-0.898702 1.4238,-0.898702 h 1.32349 l 0.0428,0.253983 c 0.0235,0.139688 0.0515,0.464978 0.0622,0.722865 l 0.0193,0.468884 0.37121,0.02381 0.3712,0.02381 v 0.923921 c 0,1.017648 0.0221,1.070087 0.46919,1.112503 l 0.27321,0.02592 0.0212,1.504343 0.0212,1.504336 h 0.22636 c 0.50754,0 0.47347,-0.271143 0.47479,3.778984 6.2e-4,2.026266 0.0305,3.730355 0.0663,3.786868 0.0421,0.0664 0.18684,0.09405 0.40909,0.07815 l 0.34391,-0.02461 0.0203,-3.769317 0.0203,-3.769318 0.19197,-0.04819 c 0.18615,-0.04672 0.19264,-0.07227 0.21415,-0.841385 l 0.0222,-0.793209 h 0.82055 0.82055 l 0.0224,0.764923 c 0.0213,0.72707 0.0319,0.76926 0.21491,0.852627 l 0.1925,0.08771 v 1.573856 c 0,1.119908 0.0271,1.600897 0.0938,1.667626 0.0677,0.06766 0.60987,0.09378 1.9473,0.09378 1.01943,0 1.90915,-0.02136 1.97713,-0.04743 0.10889,-0.04179 0.12361,-0.324564 0.12361,-2.373932 0,-1.813439 0.0224,-2.345089 0.10158,-2.410806 0.0559,-0.04637 0.39875,-0.09463 0.76194,-0.107249 l 0.66036,-0.02296 0.0221,-0.832646 c 0.0149,-0.561355 0.055,-0.859932 0.12298,-0.916372 0.0612,-0.05076 0.65256,-0.09215 1.50178,-0.105126 l 1.40089,-0.02139 0.0205,-2.950072 0.0205,-2.950068 0.17489,0.0022 c 0.0962,0.0013 1.56861,-0.01982 3.27204,-0.04676 2.24304,-0.03547 3.1428,-0.02454 3.26267,0.03962 l 0.16551,0.08858 v 8.949645 8.949641 l 0.33213,-0.02403 0.33212,-0.02403 0.0391,-3.672933 0.0391,-3.672939 h 1.56296 1.56295 l 0.0391,1.602023 0.0391,1.60203 2.07092,0.04234 c 1.139,0.02328 2.08047,0.04966 2.09217,0.05861 0.0117,0.0089 0.0117,0.671843 0,1.473104 -0.0176,1.201818 -0.0418,1.467137 -0.13849,1.515696 -0.0645,0.03238 -1.04913,0.289637 -2.18813,0.571689 -1.139,0.282046 -2.54566,0.6399 -3.1259,0.795224 -0.58025,0.15533 -1.40666,0.364975 -1.83647,0.465879 -1.20817,0.283641 -4.05845,1.035552 -4.88423,1.288474 -1.24083,0.380044 -1.76604,0.525047 -3.55263,0.980803 -0.9439,0.240785 -2.00806,0.52238 -2.36481,0.625763 -0.35675,0.103384 -1.60654,0.382418 -2.77732,0.620078 -1.17077,0.237661 -2.53309,0.518007 -3.02738,0.622997 -0.49428,0.104983 -1.37344,0.261316 -1.95368,0.347397 -0.58025,0.08608 -1.58249,0.244471 -2.22721,0.351975 -1.94987,0.325137 -5.13251,0.462937 -7.2867,0.315495 z m 4.19988,-0.115914 c 1.69612,-0.08499 3.51056,-0.305919 4.1888,-0.510043 0.20273,-0.06101 0.53094,-0.110932 0.72936,-0.110932 0.46534,0 2.48564,-0.353915 2.87256,-0.503214 0.16366,-0.06315 0.68438,-0.184794 1.15718,-0.270324 2.47824,-0.448319 3.97681,-0.767542 4.29918,-0.915816 0.25547,-0.117497 2.4414,-0.680364 2.99939,-0.772325 0.3899,-0.06426 2.17424,-0.57619 2.82154,-0.809513 0.56358,-0.203139 1.90748,-0.558038 2.11313,-0.558038 0.22213,0 1.51786,-0.362637 1.96503,-0.54995 0.20139,-0.08436 0.47812,-0.153379 0.61496,-0.153379 0.31503,0 3.02964,-0.684033 3.23886,-0.816136 0.13911,-0.08783 0.78317,-0.253509 2.89147,-0.743776 0.34384,-0.07996 0.73653,-0.168253 0.87263,-0.196211 0.13609,-0.02795 0.26836,-0.105329 0.29393,-0.171946 0.0572,-0.148959 0.0499,-2.421923 -0.008,-2.573385 -0.0344,-0.08967 -0.40405,-0.109256 -2.06265,-0.109256 -1.91786,0 -2.02485,-0.0077 -2.10163,-0.151157 -0.0476,-0.08904 -0.0809,-0.763485 -0.0809,-1.641099 v -1.489942 h -1.44573 -1.44573 v 3.589207 c 0,4.001499 0.0233,3.834816 -0.53698,3.834816 -0.16026,0 -0.33358,-0.0422 -0.38516,-0.09378 -0.0718,-0.07184 -0.0938,-2.18292 -0.0938,-9.026047 v -8.932272 h -3.2822 -3.28219 v 2.925923 c 0,2.254924 -0.0224,2.940424 -0.0977,2.989145 -0.0537,0.03477 -0.73068,0.08081 -1.50434,0.102301 l -1.40666,0.03907 -0.0391,0.882254 c -0.0295,0.666047 -0.0678,0.900983 -0.1563,0.958691 -0.0645,0.04204 -0.39855,0.07037 -0.7424,0.06295 l -0.62518,-0.01349 -0.0193,2.297922 c -0.0187,2.232127 -0.024,2.301836 -0.18449,2.434675 -0.14755,0.122138 -0.37265,0.136763 -2.10581,0.136763 -1.91677,0 -1.94209,-0.0022 -2.06225,-0.173687 -0.0999,-0.142635 -0.12165,-0.443395 -0.12165,-1.682625 0,-1.365765 -0.013,-1.513726 -0.13676,-1.559395 -0.22419,-0.08272 -0.25153,-0.184514 -0.25278,-0.941025 l -10e-4,-0.722865 h -0.70333 -0.70333 v 0.78341 c 0,0.76373 -0.005,0.785278 -0.19537,0.857689 l -0.19536,0.07428 v 3.649184 c 0,4.124289 0.0283,3.935005 -0.58866,3.935005 -0.18149,0 -0.36911,-0.04714 -0.41692,-0.10476 -0.0605,-0.07287 -0.0931,-1.232513 -0.10726,-3.809694 l -0.0203,-3.704938 -0.35167,-0.03908 -0.35166,-0.03908 -0.0391,-1.523877 -0.0391,-1.523878 -0.31258,-0.03907 -0.3126,-0.03908 -0.0222,-0.893943 c -0.0122,-0.491666 -0.0589,-0.938147 -0.10377,-0.992183 -0.0448,-0.05403 -0.22826,-0.108923 -0.40758,-0.121978 l -0.32604,-0.02375 -0.0391,-0.664251 -0.0391,-0.664254 h -1.21128 -1.21129 l -0.0226,0.683063 c -0.0248,0.748914 -0.007,0.725689 -0.6014,0.780314 l -0.23324,0.02142 -0.01,0.926388 c -0.0107,1.015584 -0.0322,1.063062 -0.48105,1.065179 l -0.25398,0.0013 v 1.482052 c 0,1.411593 -0.008,1.486111 -0.15937,1.567345 -0.0876,0.04691 -0.2371,0.07452 -0.33212,0.06136 l -0.17277,-0.02394 -0.0212,1.636745 c -0.0179,1.384889 -0.0408,1.658467 -0.14887,1.777861 -0.11819,0.130597 -0.31914,0.141107 -2.69757,0.141107 -2.37287,0 -2.59224,-0.01142 -2.86166,-0.148861 -0.27476,-0.140172 -0.30764,-0.141399 -0.56346,-0.02101 -0.14942,0.07031 -0.51784,0.146092 -0.8187,0.168402 l -0.54703,0.04056 -0.0208,2.128541 -0.0208,2.128541 -0.1864,0.122139 c -0.14833,0.09719 -0.39951,0.11956 -1.22957,0.109514 l -1.04317,-0.01263 -0.0208,1.999194 -0.0209,1.999199 0.31659,0.161507 c 0.57029,0.290944 2.21495,0.949037 2.73379,1.093899 0.51274,0.143157 2.11682,0.445916 3.55572,0.671122 0.96834,0.151555 3.08757,0.321684 4.18089,0.335628 0.45131,0.0057 1.57663,-0.02741 2.50073,-0.07371 z m 34.26595,-7.595648 c -0.0198,-0.05372 -0.0497,-1.328505 -0.0666,-2.832847 -0.0169,-1.504346 -0.0359,-2.787918 -0.0424,-2.852392 -0.006,-0.06447 0.0158,-0.275469 0.0495,-0.468885 0.0534,-0.306667 0.0863,-0.351663 0.25663,-0.351663 0.16374,0 0.20169,0.04428 0.23444,0.273518 0.0347,0.243128 0.0651,0.273518 0.27352,0.273518 h 0.23444 l 0.0209,-1.897608 c 0.0122,-1.106611 -0.0103,-1.956039 -0.0541,-2.037774 -0.0803,-0.149971 0.0498,-0.64509 0.21209,-0.80738 0.10626,-0.106258 0.32902,0.04694 0.32902,0.22628 0,0.06279 0.0433,0.09974 0.0961,0.08212 0.0529,-0.01762 0.34734,-0.803011 0.65436,-1.7453 0.35868,-1.100838 0.59561,-1.713248 0.66282,-1.713248 0.0672,0 0.30481,0.613677 0.66444,1.71601 0.30791,0.943809 0.59098,1.726394 0.62904,1.739078 0.0381,0.01268 0.10397,-0.05619 0.14646,-0.15306 0.11642,-0.265361 0.27958,-0.213064 0.4723,0.151383 0.15254,0.28846 0.16012,0.34618 0.0635,0.484091 -0.0883,0.126101 -0.1056,0.526454 -0.0887,2.056 l 0.0209,1.899407 h 0.23444 c 0.20839,0 0.23879,-0.03039 0.27352,-0.273518 0.0327,-0.229233 0.0707,-0.273518 0.23444,-0.273518 0.16619,0 0.19924,0.0408 0.22129,0.273207 0.0143,0.15026 0.0622,0.31685 0.10643,0.370204 0.0482,0.05811 0.0536,0.152235 0.0133,0.234756 -0.0369,0.07576 -0.0848,1.280662 -0.10643,2.677548 l -0.0393,2.539797 -1.56011,0.09634 c -0.85806,0.05298 -2.09392,0.167275 -2.74635,0.253978 -1.40024,0.186089 -1.3544,0.184126 -1.40008,0.05996 z m 1.56472,-0.222908 c 0.71308,-0.08579 3.39161,-0.301734 3.764,-0.303446 l 0.24736,-0.0011 0.0419,-2.520259 c 0.0231,-1.386143 0.0444,-2.57301 0.0475,-2.637481 0.003,-0.06447 -0.0167,-0.249098 -0.0439,-0.410277 -0.0523,-0.30998 -0.18859,-0.405134 -0.18859,-0.131622 0,0.301178 -0.14616,0.463747 -0.41693,0.463747 -0.14033,0 -0.29734,-0.0422 -0.34892,-0.09378 -0.1082,-0.108199 -0.1263,-2.784171 -0.025,-3.696375 0.0845,-0.761167 -0.13048,-1.429089 -0.26414,-0.820551 -0.0354,0.161232 -0.0984,0.234442 -0.20158,0.234442 -0.0825,0 -0.15064,-0.0088 -0.15132,-0.01953 -6.3e-4,-0.01073 -0.26009,-0.793196 -0.57648,-1.738779 -0.33672,-1.006363 -0.5961,-1.66985 -0.62554,-1.600107 -0.0277,0.06552 -0.28851,0.839186 -0.57965,1.719244 -0.49732,1.503337 -0.54094,1.600107 -0.72126,1.600107 -0.13954,0 -0.19874,-0.048 -0.2169,-0.175831 -0.0138,-0.09671 -0.0577,-0.175832 -0.0977,-0.175832 -0.0862,0 -0.079,-0.186477 -0.0972,2.539795 l -0.0146,2.188138 -0.29851,0.02457 c -0.36305,0.02988 -0.52205,-0.08761 -0.52205,-0.38581 0,-0.329562 -0.13517,-0.274588 -0.16762,0.06818 -0.0153,0.161179 -0.0173,1.589729 -0.005,3.174555 l 0.0232,2.881508 0.40659,-0.05412 c 0.22363,-0.02977 0.68793,-0.08798 1.03178,-0.129343 z m -8.11779,-3.003956 c -0.0796,-0.207424 -0.0552,-1.362353 0.0323,-1.525737 0.0669,-0.125051 0.16649,-0.151157 0.57653,-0.151157 0.32909,0 0.5261,0.0367 0.58629,0.109216 0.0589,0.07101 0.0828,0.378577 0.0682,0.879158 l -0.0225,0.769946 -0.59609,0.02265 c -0.49138,0.01869 -0.60463,6.29e-4 -0.64472,-0.104082 z m 1.10698,-0.758663 -0.0225,-0.722864 h -0.46889 -0.46888 l -0.0225,0.722864 -0.0225,0.722868 h 0.51382 0.51382 z"
       id="path844"
       inkscape:connector-curvature="0" /><path
       style="fill:#96b949;stroke-width:0.9026463"
       d="m -54.848687,67.415902 c -13.51492,-0.88566 -24.73332,-10.428039 -27.65853,-23.526353 -0.39313,-1.760337 -0.38027,-1.828355 0.24213,-1.280497 1.2124,1.067201 3.65149,2.398274 5.50826,3.005991 3.11116,1.018284 7.63296,1.373699 11.94432,0.938832 5.53351,-0.558144 12.70145,-2.159277 21.0217,-4.695708 4.16307,-1.269109 6.79175,-1.930601 10.68341,-2.688414 2.76549,-0.538515 5.81385,-0.777981 7.9969,-0.628207 0.76476,0.05247 1.560471,0.137694 1.76825,0.189394 l 0.377774,0.09399 -0.01026,0.71205 c -0.01293,0.898344 -0.211483,2.40635 -0.503375,3.823317 -2.096989,10.17967 -9.317539,18.590335 -19.072319,22.215881 -2.30024,0.854931 -4.54009,1.3868 -7.14052,1.695584 -0.98339,0.116771 -4.20256,0.206732 -5.15774,0.144136 z m 3.04775,-0.18627 c 2.42403,-0.101632 3.79447,-0.295979 6.06697,-0.860371 0.67199,-0.166893 1.42807,-0.376878 1.68017,-0.466623 0.2521,-0.08975 0.66936,-0.22956 0.92725,-0.310695 2.46063,-0.774107 5.82781,-2.596507 8.36179,-4.525608 1.57322,-1.19768 3.43537,-3.002134 4.88501,-4.733652 0.89971,-1.074639 2.20141,-2.922464 2.67296,-3.794357 0.1511,-0.27938 0.38024,-0.686103 0.50921,-0.90383 0.60319,-1.018302 1.56094,-3.206673 2.11824,-4.840019 0.23064,-0.675939 0.3056,-0.935034 0.644422,-2.227206 0.402482,-1.534956 0.751941,-3.719863 0.793349,-4.960212 l 0.02079,-0.62302 -0.507959,-0.105851 c -0.867572,-0.180785 -4.185882,-0.214046 -5.704772,-0.05717 -1.45403,0.150167 -3.36611,0.439727 -4.41534,0.668637 -0.38683,0.08439 -0.89674,0.191651 -1.13314,0.238346 -0.2364,0.0467 -0.65292,0.136036 -0.92562,0.198532 -0.27269,0.0625 -0.74744,0.164544 -1.05499,0.226759 -0.30755,0.06222 -1.15701,0.27329 -1.8877,0.46905 -0.73067,0.19576 -1.645,0.440635 -2.03183,0.544165 -0.72758,0.194728 -1.572,0.443396 -2.85239,0.839979 -0.96271,0.298188 -2.97744,0.896609 -3.47757,1.03292 -0.2149,0.05858 -0.70723,0.200027 -1.09407,0.314341 -0.82157,0.242789 -4.09419,1.088506 -5.00144,1.292483 -0.34385,0.07731 -0.99443,0.230809 -1.44573,0.341115 -1.05494,0.257845 -3.65279,0.800329 -4.52268,0.944429 -0.37077,0.06142 -0.97305,0.166765 -1.33839,0.234097 -0.36534,0.06733 -0.94324,0.159093 -1.2842,0.203912 -0.34098,0.04482 -0.64342,0.09599 -0.67209,0.113717 -0.17514,0.108242 -4.51206,0.434932 -5.78033,0.435419 -3.84198,0.0015 -6.96528,-0.465533 -9.33863,-1.396365 -1.53229,-0.600965 -3.37421,-1.626957 -4.45441,-2.481225 -0.52239,-0.41313 -0.53196,-0.413687 -0.47166,-0.02736 0.0815,0.521829 0.58201,2.545399 0.69943,2.827527 0.0571,0.137313 0.21883,0.618906 0.35931,1.070208 0.41341,1.328101 1.20967,3.174948 1.93737,4.493483 0.18977,0.343851 0.45074,0.818598 0.57994,1.054993 0.12919,0.2364 0.42426,0.705157 0.65571,1.041688 0.23143,0.336531 0.42079,0.631143 0.42079,0.654699 0,0.131786 1.42561,1.950236 2.34055,2.985523 1.46507,1.657757 3.82413,3.774307 5.2415,4.702677 0.23545,0.154216 0.70941,0.468915 1.05327,0.699331 0.9887,0.662541 2.36271,1.404951 3.98552,2.153474 2.76606,1.275861 6.43602,2.222876 9.49493,2.450133 0.62323,0.0463 1.27381,0.09545 1.44573,0.109215 0.17193,0.01377 0.40051,0.03021 0.50796,0.03655 0.10746,0.0063 1.0042,-0.02239 1.99277,-0.06384 z"
       id="path842"
       inkscape:connector-curvature="0" /><path
       style="fill:#8eb639;stroke-width:0.9026463"
       d="m -54.301657,67.256915 c -0.17192,-0.01377 -0.8225,-0.06291 -1.44573,-0.109216 -3.05891,-0.227257 -6.72887,-1.174271 -9.49493,-2.450132 -1.62281,-0.748523 -2.99682,-1.490933 -3.98553,-2.153474 -0.34385,-0.230417 -0.81782,-0.545115 -1.05326,-0.699331 -1.41738,-0.92837 -3.77643,-3.04492 -5.2415,-4.702677 -0.91495,-1.035287 -2.34055,-2.853737 -2.34055,-2.985523 0,-0.02356 -0.18936,-0.318168 -0.4208,-0.654699 -0.23144,-0.336531 -0.52651,-0.805288 -0.6557,-1.041689 -0.1292,-0.236394 -0.39018,-0.711141 -0.57995,-1.054992 -0.72769,-1.318536 -1.52396,-3.165382 -1.93736,-4.493483 -0.14048,-0.451303 -0.30217,-0.932895 -0.35931,-1.070208 -0.11742,-0.282128 -0.61797,-2.305698 -0.69943,-2.827527 -0.0603,-0.386327 -0.0507,-0.38577 0.47165,0.02736 1.08021,0.854269 2.92212,1.880261 4.45442,2.481226 2.37335,0.930831 5.49665,1.397841 9.33863,1.396364 1.26826,-5.97e-4 5.60518,-0.327176 5.78033,-0.435418 0.0286,-0.01772 0.33111,-0.0689 0.67208,-0.113717 0.34097,-0.04482 0.91887,-0.13658 1.28421,-0.203912 0.36534,-0.06733 0.96761,-0.172679 1.33839,-0.234097 0.86989,-0.144101 3.46773,-0.686584 4.52267,-0.94443 0.45131,-0.110305 1.10189,-0.263807 1.44574,-0.341114 0.90724,-0.203977 4.17986,-1.049694 5.00144,-1.292483 0.38683,-0.114314 0.87916,-0.255765 1.09407,-0.314341 0.50013,-0.136311 2.51485,-0.734732 3.47757,-1.03292 1.28039,-0.396583 2.12481,-0.645251 2.85239,-0.839979 0.38682,-0.10353 1.30115,-0.348406 2.03183,-0.544165 0.73068,-0.19576 1.58015,-0.406829 1.8877,-0.46905 0.30755,-0.06221 0.7823,-0.164257 1.05499,-0.226753 0.27269,-0.0625 0.68922,-0.151843 0.92562,-0.198538 0.2364,-0.04669 0.74631,-0.153953 1.13314,-0.238346 1.04923,-0.22891 2.96131,-0.518471 4.41534,-0.668637 1.51888,-0.156872 4.83719,-0.12361 5.704772,0.05718 l 0.507958,0.105851 -0.02079,0.62302 c -0.04141,1.240349 -0.390866,3.425256 -0.793348,4.960211 -0.338822,1.292173 -0.413792,1.551268 -0.644422,2.227207 -0.55731,1.633346 -1.51505,3.821717 -2.11824,4.840019 -0.12897,0.217727 -0.35812,0.62445 -0.50921,0.90383 -0.47155,0.871893 -1.77326,2.719718 -2.67296,3.794357 -2.89874,3.462386 -6.18968,6.045213 -10.16249,7.975844 -1.22704,0.596287 -2.24002,1.017804 -3.08432,1.283416 -0.25788,0.08113 -0.67514,0.220944 -0.92724,0.310695 -1.05548,0.375759 -3.37579,0.891486 -5.09012,1.131357 -0.74799,0.104655 -4.10162,0.291804 -4.64979,0.259475 -0.10745,-0.0063 -0.33603,-0.02279 -0.50795,-0.03656 z"
       id="path840"
       inkscape:connector-curvature="0" /><path
       style="fill:#4c588a;stroke-width:0.9026463"
       d="m -71.064317,45.306358 c -0.70919,-0.05578 -1.6411,-0.156462 -2.07091,-0.223735 -1.4389,-0.225206 -3.04298,-0.527965 -3.55572,-0.671122 -0.51884,-0.144862 -2.1635,-0.802955 -2.73379,-1.093898 l -0.31659,-0.161508 0.0209,-1.999199 0.0208,-1.999193 1.04317,0.01263 c 0.83005,0.01005 1.08123,-0.01233 1.22957,-0.109515 l 0.1864,-0.122138 0.0208,-2.128542 0.0208,-2.128542 0.54703,-0.04056 c 0.30086,-0.0223 0.66928,-0.09809 0.8187,-0.168402 0.25582,-0.120373 0.28869,-0.119143 0.56345,0.02101 0.26943,0.137448 0.4888,0.148857 2.86167,0.148857 2.37843,0 2.57938,-0.01051 2.69757,-0.141103 0.10805,-0.119398 0.13096,-0.392973 0.14887,-1.777864 l 0.0212,-1.636745 0.17277,0.02394 c 0.095,0.01315 0.24448,-0.01444 0.33212,-0.06136 0.15179,-0.08123 0.15937,-0.155752 0.15937,-1.567344 v -1.482053 l 0.25398,-0.0013 c 0.44887,-0.0022 0.47031,-0.0496 0.48105,-1.065179 l 0.01,-0.926388 0.23324,-0.02142 c 0.59456,-0.05463 0.57666,-0.03139 0.6014,-0.780314 l 0.0226,-0.683059 h 1.21129 1.21128 l 0.0391,0.664251 0.0391,0.664254 0.32604,0.02375 c 0.17932,0.01305 0.36273,0.06794 0.40758,0.121974 0.0448,0.05404 0.0915,0.500517 0.10377,0.992186 l 0.0222,0.89394 0.31259,0.03908 0.31259,0.03907 0.0391,1.523877 0.0391,1.523878 0.35166,0.03908 0.35167,0.03908 0.0203,3.704935 c 0.0141,2.577182 0.0468,3.736824 0.10726,3.809695 0.0478,0.05762 0.23543,0.104761 0.41692,0.104761 0.61697,0 0.58865,0.189283 0.58865,-3.935004 v -3.649186 l 0.19537,-0.07428 c 0.19046,-0.07241 0.19537,-0.09396 0.19537,-0.857693 v -0.783367 h 0.70333 0.70333 l 0.001,0.722861 c 10e-4,0.756514 0.0286,0.858309 0.25278,0.941025 0.12378,0.04567 0.13676,0.193633 0.13676,1.559396 0,1.23923 0.0217,1.539989 0.12165,1.682625 0.12016,0.171553 0.14548,0.173689 2.06225,0.173689 1.73316,0 1.95826,-0.01463 2.10581,-0.136762 0.16047,-0.132843 0.16575,-0.202548 0.18448,-2.434679 l 0.0193,-2.297919 0.62518,0.01349 c 0.34385,0.0074 0.67793,-0.02092 0.7424,-0.06295 0.0885,-0.05771 0.1268,-0.29264 0.15629,-0.958688 l 0.0391,-0.882256 1.40665,-0.03907 c 0.77367,-0.02149 1.45062,-0.06752 1.50435,-0.102298 0.0753,-0.04872 0.0977,-0.734224 0.0977,-2.989144 V 21.66999 h 3.2822 3.2822 v 8.932268 c 0,6.843128 0.0219,8.954204 0.0938,9.026049 0.0516,0.05158 0.2249,0.09378 0.38515,0.09378 0.56033,0 0.53699,0.166683 0.53699,-3.834816 v -3.589207 h 1.44573 1.44573 v 1.489941 c 0,0.877614 0.0332,1.552065 0.0809,1.6411 0.0768,0.143462 0.18377,0.151157 2.10162,0.151157 1.65861,0 2.02824,0.01958 2.06265,0.109256 0.0581,0.151462 0.0654,2.424426 0.008,2.573385 -0.0256,0.06662 -0.15783,0.143995 -0.29393,0.171946 -0.1361,0.02796 -0.52878,0.116249 -0.87263,0.196211 -2.18448,0.507985 -2.7521,0.65535 -2.88931,0.750118 -0.0848,0.05856 -0.20787,0.104086 -0.27352,0.101179 -0.0762,-0.0034 -0.0553,-0.0362 0.0578,-0.09071 l 0.17722,-0.08541 -0.0209,-1.843447 c -0.0134,-1.179488 -0.0491,-1.836443 -0.0991,-1.824006 -0.0483,0.01203 -0.0862,0.675377 -0.0992,1.738786 l -0.021,1.719339 h -1.0977 c -1.12193,0 -1.39965,0.05866 -1.40052,0.295802 -2.4e-4,0.07371 -0.10838,0.195414 -0.24024,0.270459 -0.28326,0.161221 -0.28009,0.37818 0.007,0.457979 0.15297,0.04256 0.11921,0.0563 -0.1567,0.06376 -0.19342,0.0052 -0.50496,0.07907 -0.69233,0.164087 -0.18736,0.08502 -0.38078,0.152347 -0.42981,0.149621 -0.049,-0.0027 -0.008,-0.03751 0.0912,-0.07731 0.1543,-0.06189 0.17689,-0.119326 0.15629,-0.397363 -0.0276,-0.372823 -0.17632,-0.505523 -0.48086,-0.429089 -0.17193,0.04315 -0.20746,0.0961 -0.20746,0.30916 0,0.395751 -0.13503,0.5119 -0.62518,0.537782 -0.38533,0.02035 -0.43254,0.04193 -0.45609,0.20849 -0.0248,0.175738 -0.01,0.182766 0.27351,0.129794 0.16489,-0.03081 0.27714,-0.03315 0.24944,-0.0052 -0.0277,0.02795 -0.25627,0.08228 -0.50796,0.120738 -0.59783,0.09135 -2.1665,0.516143 -2.45287,0.664229 -0.1233,0.06376 -0.26988,0.115411 -0.32574,0.114778 -0.0559,-6.61e-4 -0.0136,-0.04563 0.0938,-0.09999 l 0.19537,-0.09883 0.0215,-5.819697 c 0.0118,-3.200831 0.003,-5.897502 -0.0203,-5.992605 -0.0389,-0.160811 -0.0923,-0.174479 -0.76393,-0.195367 l -0.72211,-0.02246 -0.0205,-0.820548 c -0.0181,-0.723516 -0.0399,-0.836723 -0.1845,-0.957307 -0.20285,-0.169203 -0.44845,-0.174689 -0.67628,-0.0151 l -0.17369,0.121653 v 7.185144 7.185151 l 0.17584,-5.98e-4 c 0.0967,0 0.311,-0.03797 0.47621,-0.08384 0.16521,-0.04588 0.3175,-0.06629 0.33842,-0.04537 0.0209,0.02093 -0.23733,0.0962 -0.5739,0.167293 -1.2239,0.258514 -3.15411,0.754349 -3.3652,0.864461 -0.11899,0.06207 -0.26909,0.110293 -0.33356,0.107163 -0.0645,-0.0031 -0.0242,-0.03979 0.0896,-0.08147 0.11373,-0.04168 0.22755,-0.153197 0.25292,-0.247806 0.0847,-0.315912 0.0539,-8.181827 -0.0326,-8.343591 -0.0706,-0.131918 -0.16871,-0.151122 -0.77191,-0.151122 -0.48792,0 -0.71698,0.0313 -0.77938,0.106475 -0.064,0.07708 -0.0828,1.323591 -0.0682,4.513027 0.0177,3.861062 0.0347,4.405309 0.13741,4.396588 0.0645,-0.0055 0.25789,-0.03065 0.42981,-0.05594 0.79751,-0.117309 -1.33115,0.321128 -3.20405,0.659939 -0.47279,0.08552 -0.99221,0.206644 -1.15426,0.269152 -0.3771,0.145454 -0.56868,0.143104 -0.23286,-0.0029 l 0.25398,-0.110388 v -2.494964 c 0,-2.475253 10e-4,-2.49586 0.16999,-2.60783 0.21743,-0.14437 0.14234,-0.375085 -0.12207,-0.375085 -0.45443,0 -0.43865,0.07357 -0.43865,-2.045338 0,-1.19506 -0.0313,-2.009007 -0.0809,-2.101622 -0.0626,-0.116982 -0.1651,-0.151157 -0.45326,-0.151157 -0.2048,0 -0.41456,0.0422 -0.46613,0.09378 -0.0681,0.06809 -0.0938,0.645685 -0.0938,2.108498 v 2.01472 l -0.17583,0.04011 c -0.0967,0.02206 -0.40442,0.04911 -0.6838,0.0601 l -0.50795,0.01999 -0.0205,3.000142 -0.0205,3.000141 0.37214,-0.04647 c 0.99052,-0.123704 1.15857,-0.128474 0.60659,-0.01723 -0.30087,0.06064 -0.72528,0.11241 -0.94313,0.115053 -0.21785,0.0026 -0.56951,0.05608 -0.78147,0.118751 -0.45547,0.13467 -1.51487,0.306493 -1.56719,0.254177 -0.0201,-0.02009 0.24984,-0.0784 0.59985,-0.129576 0.35001,-0.05118 0.68567,-0.11197 0.74592,-0.135086 0.16179,-0.06209 0.16327,-6.057111 0.002,-6.191342 -0.0742,-0.06156 -0.51827,-0.08292 -1.41778,-0.06818 -1.16572,0.01911 -1.31928,0.03701 -1.39632,0.16278 -0.0716,0.116934 -0.0495,0.168623 0.12834,0.299571 l 0.21491,0.158255 v 3.011271 3.011271 l 0.52749,-0.04227 c 0.50651,-0.04058 0.5104,-0.03961 0.0977,0.02452 -0.58478,0.09087 -3.60006,0.238235 -4.6107,0.22534 -0.4513,-0.0057 -1.4008,-0.05611 -2.10999,-0.111893 z m 3.65394,-5.364984 0.0201,-5.368295 -1.03599,-0.02388 c -0.5698,-0.01315 -1.09754,0.0037 -1.17276,0.03747 -0.1283,0.05757 -0.13675,0.389135 -0.13675,5.359627 0,2.914041 0.0244,5.322631 0.0541,5.352417 0.0298,0.02978 0.54849,0.04443 1.15268,0.03256 l 1.09852,-0.02159 z m -8.75206,1.832118 -0.0205,-2.715627 -0.45594,-0.02364 c -0.26891,-0.01394 -0.50132,0.01403 -0.56657,0.06818 -0.15304,0.127009 -0.16534,4.932595 -0.013,5.055824 0.0973,0.07864 0.7899,0.307254 0.97786,0.322751 0.0781,0.0064 0.0944,-0.558003 0.0781,-2.707492 z m 16.33184,2.663874 c 0.0537,-0.02168 0.14164,-0.02168 0.19537,0 0.0537,0.02168 0.01,0.03942 -0.0977,0.03942 -0.10745,0 -0.15141,-0.01774 -0.0977,-0.03942 z m 0.39073,-0.07815 c 0.0537,-0.02168 0.14165,-0.02168 0.19537,0 0.0537,0.02167 0.01,0.03942 -0.0977,0.03942 -0.10745,0 -0.15141,-0.01774 -0.0977,-0.03942 z m 5.55337,-1.173843 c 0.0564,-0.02258 0.12381,-0.0198 0.14978,0.0062 0.026,0.02596 -0.0202,0.04444 -0.10257,0.04105 -0.091,-0.0038 -0.10955,-0.02227 -0.0472,-0.04722 z m 4.94075,-1.30982 c 0.15198,-0.05601 0.39814,-0.122983 0.54703,-0.148836 0.1489,-0.02585 0.0597,0.02197 -0.19816,0.106279 -0.52102,0.170316 -0.78191,0.202142 -0.34887,0.04256 z m 4.41254,-1.205142 c 0.086,-0.03762 0.27938,-0.09072 0.42981,-0.117995 0.18777,-0.03405 0.22452,-0.02816 0.11722,0.0188 -0.086,0.03762 -0.27937,0.09072 -0.42981,0.117995 -0.18776,0.03405 -0.22452,0.02815 -0.11722,-0.0188 z m 2.36885,-0.61094 c 0.0564,-0.02258 0.12381,-0.0198 0.14978,0.0062 0.026,0.02596 -0.0202,0.04443 -0.10257,0.04105 -0.091,-0.0038 -0.10955,-0.02227 -0.0472,-0.04722 z m 0.31259,-0.07815 c 0.0564,-0.02257 0.12381,-0.0198 0.14978,0.0062 0.026,0.02597 -0.0202,0.04444 -0.10257,0.04105 -0.091,-0.0038 -0.10955,-0.02227 -0.0472,-0.04721 z m 0.31259,-0.07814 c 0.0564,-0.02258 0.12382,-0.0198 0.14978,0.0062 0.026,0.02596 -0.0202,0.04444 -0.10257,0.04105 -0.091,-0.0037 -0.10955,-0.02227 -0.0472,-0.04722 z m 0.62518,-0.156297 c 0.0564,-0.02257 0.12382,-0.0198 0.14978,0.0062 0.026,0.02597 -0.0202,0.04444 -0.10256,0.04105 -0.091,-0.0038 -0.10956,-0.02227 -0.0472,-0.04721 z m 0.36632,-0.09239 c 0.086,-0.03762 0.27937,-0.09071 0.42981,-0.117989 0.18777,-0.03405 0.22451,-0.02816 0.11722,0.0188 -0.086,0.03762 -0.27938,0.09071 -0.42981,0.117989 -0.18777,0.03405 -0.22452,0.02816 -0.11722,-0.0188 z m 8.46315,-4.826555 c -0.0128,-1.584828 -0.0107,-3.013382 0.005,-3.174561 0.0324,-0.342761 0.16763,-0.397745 0.16763,-0.06818 0,0.298199 0.15899,0.415704 0.52204,0.385813 l 0.2985,-0.0246 0.0146,-2.188132 c 0.0182,-2.726268 0.011,-2.539795 0.0972,-2.539795 0.04,0 0.084,0.07913 0.0977,0.175835 0.0182,0.127835 0.0774,0.175832 0.2169,0.175832 0.18031,0 0.22393,-0.09677 0.72126,-1.600107 0.29114,-0.880058 0.55198,-1.65372 0.57964,-1.719247 0.0294,-0.06974 0.28883,0.593743 0.62555,1.6001 0.31639,0.945593 0.5758,1.728046 0.57648,1.738789 6.3e-4,0.01073 0.0688,0.01953 0.15132,0.01953 0.10322,0 0.16616,-0.07321 0.20158,-0.234442 0.13366,-0.608531 0.34866,0.05939 0.26414,0.820548 -0.1013,0.912207 -0.0832,3.588182 0.025,3.696384 0.0516,0.05158 0.20859,0.09378 0.34891,0.09378 0.27078,0 0.41694,-0.162567 0.41694,-0.463745 0,-0.273518 0.13634,-0.178357 0.18858,0.131616 0.0272,0.161179 0.0469,0.345803 0.0439,0.410274 -0.003,0.06447 -0.0244,1.251341 -0.0475,2.637481 l -0.0419,2.520262 -0.24736,0.0012 c -0.13605,6.29e-4 -0.89794,0.05223 -1.69309,0.114683 -1.33666,0.104978 -2.05424,0.178546 -3.10269,0.318104 l -0.4066,0.05412 -0.0232,-2.881502 z m -6.53193,-1.064575 0.0225,-0.722864 h 0.46888 0.46889 l 0.0225,0.722864 0.0225,0.722868 h -0.51382 -0.51383 z"
       id="path837"
       inkscape:connector-curvature="0" /><path
       style="fill:#1f2553;stroke-width:0.9026463"
       d="m -69.681657,45.298703 c -0.0298,-0.02979 -0.0541,-2.438375 -0.0541,-5.352417 0,-4.970492 0.008,-5.302057 0.13675,-5.359627 0.0752,-0.03375 0.60296,-0.0506 1.17276,-0.03747 l 1.03599,0.02388 -0.0201,5.368295 -0.0201,5.368294 -1.09852,0.02159 c -0.60419,0.01187 -1.1229,-0.0028 -1.15268,-0.03256 z m 4.71285,-3.108418 v -3.002164 l -0.2149,-0.158254 c -0.17783,-0.130954 -0.19997,-0.182643 -0.12834,-0.299577 0.077,-0.125773 0.2306,-0.143673 1.39632,-0.16278 0.89951,-0.01475 1.34359,0.0066 1.41777,0.06818 0.0885,0.07347 0.10802,0.636817 0.10802,3.122573 0,2.820787 -0.01,3.035788 -0.13675,3.073891 -0.21691,0.06498 -2.07191,0.359635 -2.26629,0.359987 l -0.17583,5.98e-4 z m 3.45711,-0.534014 0.0205,-2.989146 0.50796,-0.01999 c 0.27938,-0.01099 0.58708,-0.03804 0.68379,-0.0601 l 0.17583,-0.04011 v -2.01472 c 0,-1.462804 0.0257,-2.040407 0.0938,-2.108496 0.0516,-0.05158 0.26134,-0.09378 0.46614,-0.09378 0.28815,0 0.39065,0.03418 0.45325,0.151157 0.0496,0.09262 0.0809,0.906566 0.0809,2.101626 0,2.118912 -0.0158,2.045332 0.43865,2.045332 0.26442,0 0.3395,0.230715 0.12207,0.375085 -0.16862,0.111964 -0.16998,0.132753 -0.16998,2.601307 0,2.803701 0.0551,2.567459 -0.63482,2.721506 -0.41601,0.09289 -1.9161,0.319469 -2.11504,0.319469 -0.13704,0 -0.14255,-0.133814 -0.123,-2.989146 z m -15.21832,2.698764 c -0.21491,-0.0648 -0.43469,-0.15336 -0.48842,-0.196802 -0.1524,-0.123229 -0.14009,-4.928815 0.013,-5.055824 0.0652,-0.05415 0.29765,-0.08212 0.56656,-0.06818 l 0.45595,0.02364 0.0205,2.715627 c 0.0163,2.149489 -2e-5,2.713933 -0.0781,2.707492 -0.0543,-0.0045 -0.27453,-0.06115 -0.48943,-0.125948 z m 21.89521,-1.011222 c -0.0291,-0.02912 -0.053,-2.026963 -0.053,-4.439643 0,-3.307665 0.0231,-4.409752 0.0938,-4.480461 0.0587,-0.05867 0.35019,-0.09378 0.77873,-0.09378 0.60291,0 0.69487,0.01856 0.76785,0.154903 0.0562,0.105095 0.076,1.488026 0.0614,4.300999 -0.0186,3.585017 -0.0374,4.15598 -0.13876,4.219097 -0.0645,0.04015 -0.36339,0.128211 -0.66426,0.195695 -0.30087,0.06749 -0.60233,0.139224 -0.66991,0.159422 -0.0676,0.0202 -0.1467,0.01289 -0.17583,-0.01624 z m 4.55775,-8.384266 v -7.185151 l 0.17368,-0.121653 c 0.22784,-0.159578 0.47344,-0.154092 0.67629,0.0151 0.14457,0.120591 0.16639,0.233791 0.18449,0.957313 l 0.0205,0.820548 0.70075,0.02281 c 0.43953,0.01431 0.72312,0.05802 0.76075,0.117224 0.033,0.05192 0.0605,2.736363 0.0612,5.965437 9.4e-4,4.604081 -0.0199,5.887954 -0.0965,5.949437 -0.12473,0.100107 -2.07194,0.644143 -2.30536,0.644096 l -0.17583,-3.5e-5 z m 5.01555,5.680807 c 0.022,-0.154656 0.0767,-0.178569 0.45478,-0.198532 0.49016,-0.02588 0.62518,-0.142031 0.62518,-0.537783 0,-0.213056 0.0355,-0.26601 0.20747,-0.309159 0.31946,-0.08018 0.45679,0.05407 0.45679,0.446543 v 0.341348 l -0.7424,0.210079 c -0.94823,0.268314 -1.03376,0.27237 -1.00182,0.0475 z m 2.59265,-0.645714 c -0.054,-0.140666 0.084,-0.32604 0.29177,-0.391983 0.0821,-0.02605 0.14923,-0.114091 0.14923,-0.195648 0,-0.25219 0.26136,-0.310074 1.40003,-0.310074 h 1.09771 l 0.021,-1.73878 c 0.0134,-1.109677 0.0493,-1.731747 0.0992,-1.719334 0.0486,0.01209 0.0861,0.711013 0.0991,1.84595 l 0.0209,1.826497 -0.2163,0.08389 c -0.44186,0.171372 -2.57523,0.7177 -2.80257,0.7177 -0.0631,0 -0.13514,-0.0532 -0.16009,-0.118218 z"
       id="path835"
       inkscape:connector-curvature="0" /></g><path
     style="fill:#ffffff"
     inkscape:connector-curvature="0"
     class="st2"
     d="M 33.438826,2.5999996 C 16.338827,2.5999996 2.5388266,16.4 2.5388266,33.5 c 0,17.1 13.9000004,30.9 30.8999994,30.9 0.3,0 0.7,0 1,-0.1 15.6,-0.5 28.2,-12.5 29.8,-27.7 0.1,-1 0.2,-2.1 0.2,-3.2 -0.1,-17 -13.9,-30.8000005 -31,-30.8000004 z M 53.938826,54 c -5.9,5.9 -13.7,8.7 -21.4,8.5 -7.1,-0.2 -14.199999,-3 -19.599999,-8.5 -11.3000004,-11.3 -11.3000004,-29.7 0,-41 11.299999,-11.3000004 29.699999,-11.3000004 40.999999,0 6,6 8.8,14 8.4,21.8 -0.3,7 -3.1,13.9 -8.4,19.2 z"
     id="path845" /><style
     id="style2-6"
     type="text/css">
	.st0{fill:#ED443E;}
	.st1{fill:#C2232F;}
</style><style
     id="style837"
     type="text/css">
	.st0{fill:#F6921E;}
	.st1{fill:#F05A28;}
	.st2{fill:#FFFFFF;}
	.st3{fill:#58595B;}
</style><style
     id="style2-3"
     type="text/css">
	.st0{fill:#ED443E;}
	.st1{fill:#C2232F;}
</style></svg>