<?xml version="1.0" encoding="UTF-8" standalone="no"?>
<!-- Roman Inozemtsev: https://github.com/mir-one/  -->

<svg
   xmlns:dc="http://purl.org/dc/elements/1.1/"
   xmlns:cc="http://creativecommons.org/ns#"
   xmlns:rdf="http://www.w3.org/1999/02/22-rdf-syntax-ns#"
   xmlns:svg="http://www.w3.org/2000/svg"
   xmlns="http://www.w3.org/2000/svg"
   xmlns:sodipodi="http://sodipodi.sourceforge.net/DTD/sodipodi-0.dtd"
   xmlns:inkscape="http://www.inkscape.org/namespaces/inkscape"
   version="1.1"
   id="Слой_1"
   x="0px"
   y="0px"
   viewBox="0 0 66.900883 67"
   xml:space="preserve"
   sodipodi:docname="wB-bg-AMUR.svg"
   inkscape:version="0.92.3 (2405546, 2018-03-11)"
   width="66.900887"
   height="67"><metadata
     id="metadata27"><rdf:RDF><cc:Work
         rdf:about=""><dc:format>image/svg+xml</dc:format><dc:type
           rdf:resource="http://purl.org/dc/dcmitype/StillImage" /></cc:Work></rdf:RDF></metadata><defs
     id="defs25">
	
	
	
	
	
	
	
</defs><sodipodi:namedview
     pagecolor="#ffffff"
     bordercolor="#666666"
     borderopacity="1"
     objecttolerance="10"
     gridtolerance="10"
     guidetolerance="10"
     inkscape:pageopacity="0"
     inkscape:pageshadow="2"
     inkscape:window-width="1366"
     inkscape:window-height="691"
     id="namedview23"
     showgrid="false"
     inkscape:zoom="5.1744869"
     inkscape:cx="16.440846"
     inkscape:cy="37.815578"
     inkscape:window-x="0"
     inkscape:window-y="0"
     inkscape:window-maximized="1"
     inkscape:current-layer="Слой_1" /><style
     type="text/css"
     id="style2">
	.st0{fill:#3F61AC;}
	.st1{fill:#FFFFFF;}
	.st2{fill:#2B388F;}
	.st3{fill:#58595B;}
</style><path
     style="fill:#ef4136;fill-opacity:1"
     d="M 33.5,0 C 15,0 0,15 0,33.5 0,52 15,67 33.5,67 c 1.2,0 2.30039,-0.101172 3.40039,-0.201172 15.1,-1.5 27.19961,-13.100391 29.59961,-27.900391 l -0.0879,-0.08789 C 66.70388,37.043464 66.90038,35.368649 66.90038,33.5 67.00038,15 51.99999,0 33.49999,0 Z m 0,2.5996094 C 50.6,2.5996094 64.40039,16.5 64.40039,33.5 c 0,1.1 -0.10117,2.099219 -0.20117,3.199219 l 0.0898,0.08789 C 62.74886,52.044523 50.06989,63.899401 34.49995,64.398437 h -1 C 16.39995,64.398437 2.59956,50.5 2.59956,33.5 2.59956,16.4 16.49995,2.5996094 33.49995,2.5996094 Z"
     id="path839"
     inkscape:connector-curvature="0" /><path
     style="fill:#ef4136;fill-opacity:1"
     d="m 33.43794,4.5067206 c -7.425,0 -14.85,2.8265626 -20.5,8.4765624 -11.3,11.3 -11.3,29.7 0,41 5.4,5.4 12.49961,8.2 19.59961,8.5 7.7,0.2 15.50039,-2.6 21.40039,-8.5 5.3,-5.3 8.1,-12.201172 8.5,-19.201172 l -0.0977,-0.0957 c 0.37234,-7.769744 -2.42684,-15.727622 -8.40235,-21.703125 -5.65,-5.6499998 -13.075,-8.4765624 -20.5,-8.4765624 z"
     id="path841"
     inkscape:connector-curvature="0" /><path
     style="fill:#ffffff"
     inkscape:connector-curvature="0"
     class="st2"
     d="m 33.40044,2.6000001 c -17.1,0 -30.9,13.7999999 -30.9,30.8999999 0,17.1 13.9,30.9 30.9,30.9 0.3,0 0.7,0 1,-0.1 15.6,-0.5 28.2,-12.5 29.8,-27.7 0.1,-1 0.2,-2.1 0.2,-3.2 -0.1,-17 -13.9,-30.8 -31,-30.7999999 z M 53.90044,54 c -5.9,5.9 -13.7,8.7 -21.4,8.5 -7.1,-0.2 -14.2,-3 -19.6,-8.5 -11.3,-11.3 -11.3,-29.7 0,-41 11.3,-11.2999999 29.7,-11.2999999 41,0 6,6 8.8,14 8.4,21.8 -0.3,7 -3.1,13.9 -8.4,19.2 z"
     id="path845" /><style
     id="style2-6"
     type="text/css">
	.st0{fill:#ED443E;}
	.st1{fill:#C2232F;}
</style><path
     style="fill:#ffffff;stroke-width:0.99998569;image-rendering:optimizeQuality;shape-rendering:geometricPrecision;text-rendering:geometricPrecision"
     d="m 33.297587,15.432856 -16.164419,9.677269 0.01724,18.771694 0.594914,0.334532 c 15.810391,9.09633 -0.594521,-0.33573 15.552261,8.956474 l 0.231068,0.12588 0.0018,0.01207 c 2.36e-4,-9.2e-5 0.01009,-0.0068 0.01035,-0.0069 l 0.01552,0.0087 v -0.01552 c 0.159222,-0.06547 3.220634,-1.74113 14.774563,-8.411568 0.796987,-0.46011 1.436043,-0.883296 1.419171,-0.939792 -0.01677,-0.05651 -1.786844,-1.127935 -3.933331,-2.381381 -2.917703,-1.703776 -3.910454,-2.331694 -3.93333,-2.490016 l 7.847693,-14.150333 0.03622,-0.02069 h -0.02587 -0.0018 l -8.096004,-0.05173 c -4.467794,-0.02846 -8.150034,-0.07813 -8.182224,-0.11036 -0.03219,-0.03224 -0.0607,-2.139701 -0.06381,-4.68344 -0.0031,-2.685438 -0.04567,-4.62481 -0.100015,-4.62481 z"
     id="path6"
     inkscape:connector-curvature="0" /><style
     id="style837"
     type="text/css">
	.st0{fill:#F6921E;}
	.st1{fill:#F05A28;}
	.st2{fill:#FFFFFF;}
	.st3{fill:#58595B;}
</style><style
     id="style2-3"
     type="text/css">
	.st0{fill:#ED443E;}
	.st1{fill:#C2232F;}
</style></svg>