<?xml version="1.0" encoding="UTF-8" standalone="no"?>
<!-- Roman Inozemtsev: https://github.com/mir-one/  -->

<svg
   xmlns:dc="http://purl.org/dc/elements/1.1/"
   xmlns:cc="http://creativecommons.org/ns#"
   xmlns:rdf="http://www.w3.org/1999/02/22-rdf-syntax-ns#"
   xmlns:svg="http://www.w3.org/2000/svg"
   xmlns="http://www.w3.org/2000/svg"
   xmlns:sodipodi="http://sodipodi.sourceforge.net/DTD/sodipodi-0.dtd"
   xmlns:inkscape="http://www.inkscape.org/namespaces/inkscape"
   version="1.1"
   id="Слой_1"
   x="0px"
   y="0px"
   viewBox="0 0 66.900875 67"
   xml:space="preserve"
   sodipodi:docname="wB-bg-COMMUNITY.svg"
   inkscape:version="0.92.3 (2405546, 2018-03-11)"
   width="66.900879"
   height="67"><metadata
     id="metadata27"><rdf:RDF><cc:Work
         rdf:about=""><dc:format>image/svg+xml</dc:format><dc:type
           rdf:resource="http://purl.org/dc/dcmitype/StillImage" /></cc:Work></rdf:RDF></metadata><defs
     id="defs25">
	
	
	
	
	
	
	
</defs><sodipodi:namedview
     pagecolor="#ffffff"
     bordercolor="#666666"
     borderopacity="1"
     objecttolerance="10"
     gridtolerance="10"
     guidetolerance="10"
     inkscape:pageopacity="0"
     inkscape:pageshadow="2"
     inkscape:window-width="1366"
     inkscape:window-height="691"
     id="namedview23"
     showgrid="false"
     inkscape:zoom="5.1744869"
     inkscape:cx="6.4787059"
     inkscape:cy="37.815578"
     inkscape:window-x="0"
     inkscape:window-y="0"
     inkscape:window-maximized="1"
     inkscape:current-layer="Слой_1" /><style
     type="text/css"
     id="style2">
	.st0{fill:#3F61AC;}
	.st1{fill:#FFFFFF;}
	.st2{fill:#2B388F;}
	.st3{fill:#58595B;}
</style><path
     style="fill:#aa0088;fill-opacity:1"
     d="M 33.5,0 C 15,0 0,15 0,33.5 0,52 15,67 33.5,67 c 1.2,0 2.30039,-0.101172 3.40039,-0.201172 15.1,-1.5 27.19961,-13.100391 29.59961,-27.900391 l -0.0879,-0.08789 C 66.70388,37.043464 66.90038,35.368649 66.90038,33.5 67.00038,15 51.99999,0 33.49999,0 Z m 0,2.5996094 C 50.6,2.5996094 64.40039,16.5 64.40039,33.5 c 0,1.1 -0.10117,2.099219 -0.20117,3.199219 l 0.0898,0.08789 C 62.74886,52.044523 50.06989,63.899401 34.49995,64.398437 h -1 C 16.39995,64.398437 2.59956,50.5 2.59956,33.5 2.59956,16.4 16.49995,2.5996094 33.49995,2.5996094 Z"
     id="path839"
     inkscape:connector-curvature="0" /><path
     style="fill:#aa0088;fill-opacity:1"
     d="m 33.437938,4.5067207 c -7.425,0 -14.85,2.8265626 -20.5,8.4765623 -11.299999,11.3 -11.299999,29.7 0,41 5.4,5.4 12.49961,8.2 19.59961,8.5 7.7,0.2 15.50039,-2.6 21.40039,-8.5 5.3,-5.3 8.1,-12.201172 8.5,-19.201172 l -0.0977,-0.0957 c 0.37234,-7.769744 -2.42684,-15.727622 -8.40235,-21.703125 -5.65,-5.6499997 -13.075,-8.4765623 -20.5,-8.4765623 z"
     id="path841"
     inkscape:connector-curvature="0" /><path
     style="fill:#ffffff"
     inkscape:connector-curvature="0"
     class="st2"
     d="m 33.400438,2.6 c -17.1,0 -30.9,13.8 -30.9,30.9 0,17.1 13.9,30.9 30.9,30.9 0.3,0 0.700001,0 1,-0.1 15.600001,-0.5 28.200001,-12.5 29.8,-27.7 0.1,-1 0.200001,-2.1 0.200001,-3.2 -0.1,-17 -13.9,-30.8000001 -31.000001,-30.8 z m 20.5,51.4 c -5.899999,5.9 -13.7,8.7 -21.399999,8.5 -7.100001,-0.2 -14.2,-3 -19.6,-8.5 -11.300001,-11.3 -11.300001,-29.7 0,-41 11.299999,-11.3 29.7,-11.3 40.999999,0 6,6 8.8,14 8.4,21.8 -0.299999,7 -3.1,13.9 -8.4,19.2 z"
     id="path845" /><style
     id="style2-6"
     type="text/css">
	.st0{fill:#ED443E;}
	.st1{fill:#C2232F;}
</style><style
     id="style837"
     type="text/css">
	.st0{fill:#F6921E;}
	.st1{fill:#F05A28;}
	.st2{fill:#FFFFFF;}
	.st3{fill:#58595B;}
</style><style
     id="style2-3"
     type="text/css">
	.st0{fill:#ED443E;}
	.st1{fill:#C2232F;}
</style><path
     inkscape:connector-curvature="0"
     d="M 49.320685,22.919836 H 45.793964 V 38.790081 H 22.870273 v 3.526721 c 0,0.969849 0.793513,1.763361 1.763362,1.763361 h 19.396968 l 7.053443,7.053443 V 24.683197 c 0,-0.969848 -0.793513,-1.763361 -1.763361,-1.763361 z M 42.267242,33.499999 V 17.629754 c 0,-0.969848 -0.793512,-1.76336 -1.763361,-1.76336 h -22.92369 c -0.969848,0 -1.76336,0.793512 -1.76336,1.76336 v 24.687048 l 7.053442,-7.053442 h 17.633608 c 0.969849,0 1.763361,-0.793513 1.763361,-1.763361 z"
     id="path824-3"
     style="fill:#ffffff;stroke-width:0.99999994" /></svg>