<?xml version="1.0" encoding="UTF-8" standalone="no"?>
<!-- Roman Inozemtsev: https://github.com/mir-one/  -->

<svg
   xmlns:dc="http://purl.org/dc/elements/1.1/"
   xmlns:cc="http://creativecommons.org/ns#"
   xmlns:rdf="http://www.w3.org/1999/02/22-rdf-syntax-ns#"
   xmlns:svg="http://www.w3.org/2000/svg"
   xmlns="http://www.w3.org/2000/svg"
   xmlns:sodipodi="http://sodipodi.sourceforge.net/DTD/sodipodi-0.dtd"
   xmlns:inkscape="http://www.inkscape.org/namespaces/inkscape"
   version="1.1"
   id="Слой_1"
   x="0px"
   y="0px"
   viewBox="0 0 66.900875 67"
   xml:space="preserve"
   sodipodi:docname="wB-bg-BOOK.svg"
   inkscape:version="0.92.3 (2405546, 2018-03-11)"
   width="66.900879"
   height="67"><metadata
     id="metadata27"><rdf:RDF><cc:Work
         rdf:about=""><dc:format>image/svg+xml</dc:format><dc:type
           rdf:resource="http://purl.org/dc/dcmitype/StillImage" /></cc:Work></rdf:RDF></metadata><defs
     id="defs25">
	
	
	
	
	
	
	
</defs><sodipodi:namedview
     pagecolor="#ffffff"
     bordercolor="#666666"
     borderopacity="1"
     objecttolerance="10"
     gridtolerance="10"
     guidetolerance="10"
     inkscape:pageopacity="0"
     inkscape:pageshadow="2"
     inkscape:window-width="1366"
     inkscape:window-height="691"
     id="namedview23"
     showgrid="false"
     inkscape:zoom="5.1744869"
     inkscape:cx="68.815914"
     inkscape:cy="38.588602"
     inkscape:window-x="0"
     inkscape:window-y="0"
     inkscape:window-maximized="1"
     inkscape:current-layer="Слой_1" /><style
     type="text/css"
     id="style2">
	.st0{fill:#3F61AC;}
	.st1{fill:#FFFFFF;}
	.st2{fill:#2B388F;}
	.st3{fill:#58595B;}
</style><path
     style="fill:#2b1100;fill-opacity:1"
     d="M 33.499999,0 C 15,0 0,15.000001 0,33.500001 0,52.000001 15,67 33.499999,67 c 1.2,0 2.30039,-0.101172 3.40039,-0.201172 15.100001,-1.5 27.19961,-13.100391 29.59961,-27.900391 l -0.0879,-0.08789 C 66.703879,37.043464 66.900379,35.368649 66.900379,33.5 67.00038,15 51.999989,0 33.499989,0 Z m 0,2.5996094 c 17.100001,0 30.900391,13.9003916 30.900391,30.9003916 0,1.1 -0.10117,2.099219 -0.201171,3.199219 l 0.0898,0.08789 c -1.54016,15.257414 -14.21913,27.112292 -29.78907,27.611327 h -1 C 16.39995,64.398437 2.599559,50.5 2.599559,33.5 c 0,-17.1 13.90039,-30.9003906 30.90039,-30.9003906 z"
     id="path839"
     inkscape:connector-curvature="0" /><path
     style="fill:#2b1100;fill-opacity:1"
     d="m 33.437937,4.5067207 c -7.424999,0 -14.849999,2.8265626 -20.499999,8.4765633 -11.3,11.3 -11.3,29.7 0,41 5.4,5.4 12.49961,8.2 19.599609,8.5 7.7,0.2 15.50039,-2.6 21.400391,-8.5 5.3,-5.3 8.1,-12.201172 8.5,-19.201172 l -0.0977,-0.0957 C 62.712578,26.916668 59.913398,18.95879 53.937888,12.983287 48.287887,7.3332863 40.862887,4.5067237 33.437887,4.5067237 Z"
     id="path841"
     inkscape:connector-curvature="0" /><path
     style="fill:#ffffff"
     inkscape:connector-curvature="0"
     class="st2"
     d="m 33.400437,2.6 c -17.1,0 -30.899999,13.800001 -30.899999,30.900001 0,17.1 13.899999,30.9 30.899999,30.9 0.3,0 0.700001,0 1,-0.1 15.600001,-0.5 28.200001,-12.5 29.8,-27.7 0.1,-1 0.200001,-2.1 0.200001,-3.2 -0.1,-17 -13.9,-30.8000011 -31.000001,-30.800001 z m 20.5,51.400001 c -5.899999,5.9 -13.7,8.7 -21.399999,8.5 -7.100001,-0.2 -14.2,-3 -19.6,-8.5 -11.3,-11.3 -11.3,-29.7 0,-41 11.299999,-11.300001 29.7,-11.300001 40.999999,0 6,6 8.8,14 8.4,21.8 -0.299999,7 -3.1,13.9 -8.4,19.2 z"
     id="path845" /><style
     id="style2-6"
     type="text/css">
	.st0{fill:#ED443E;}
	.st1{fill:#C2232F;}
</style><style
     id="style837"
     type="text/css">
	.st0{fill:#F6921E;}
	.st1{fill:#F05A28;}
	.st2{fill:#FFFFFF;}
	.st3{fill:#58595B;}
</style><style
     id="style2-3"
     type="text/css">
	.st0{fill:#ED443E;}
	.st1{fill:#C2232F;}
</style><path
     inkscape:connector-curvature="0"
     d="M 43.798695,16.252906 H 23.102181 c -1.89718,0 -3.449419,1.552239 -3.449419,3.449419 v 27.595352 c 0,1.89718 1.552239,3.449419 3.449419,3.449419 h 20.696514 c 1.897181,0 3.449419,-1.552239 3.449419,-3.449419 V 19.702325 c 0,-1.89718 -1.552238,-3.449419 -3.449419,-3.449419 z m -20.696514,3.449419 h 8.623548 v 13.797676 l -4.311774,-2.587064 -4.311774,2.587064 z"
     id="path824-3"
     style="fill:#ffffff;stroke-width:0.99999994" /></svg>