<?xml version="1.0" encoding="UTF-8" standalone="no"?>
<!-- Roman Inozemtsev: https://github.com/mir-one/  -->

<svg
   xmlns:dc="http://purl.org/dc/elements/1.1/"
   xmlns:cc="http://creativecommons.org/ns#"
   xmlns:rdf="http://www.w3.org/1999/02/22-rdf-syntax-ns#"
   xmlns:svg="http://www.w3.org/2000/svg"
   xmlns="http://www.w3.org/2000/svg"
   xmlns:sodipodi="http://sodipodi.sourceforge.net/DTD/sodipodi-0.dtd"
   xmlns:inkscape="http://www.inkscape.org/namespaces/inkscape"
   version="1.1"
   id="Слой_1"
   x="0px"
   y="0px"
   viewBox="0 0 66.900879 67"
   xml:space="preserve"
   sodipodi:docname="wB-bg-QUEST.svg"
   inkscape:version="0.92.3 (2405546, 2018-03-11)"
   width="66.900879"
   height="67"><metadata
     id="metadata19"><rdf:RDF><cc:Work
         rdf:about=""><dc:format>image/svg+xml</dc:format><dc:type
           rdf:resource="http://purl.org/dc/dcmitype/StillImage" /></cc:Work></rdf:RDF></metadata><defs
     id="defs17" /><sodipodi:namedview
     pagecolor="#ffffff"
     bordercolor="#666666"
     borderopacity="1"
     objecttolerance="10"
     gridtolerance="10"
     guidetolerance="10"
     inkscape:pageopacity="0"
     inkscape:pageshadow="2"
     inkscape:window-width="1366"
     inkscape:window-height="691"
     id="namedview15"
     showgrid="false"
     inkscape:zoom="3.5223881"
     inkscape:cx="-42.8473"
     inkscape:cy="33.698946"
     inkscape:window-x="0"
     inkscape:window-y="0"
     inkscape:window-maximized="1"
     inkscape:current-layer="Слой_1" /><style
     type="text/css"
     id="style2">
	.st0{fill:#F05A28;}
	.st1{fill:#C44827;}
	.st2{fill:#FFFFFF;}
</style><path
     style="fill:#00002b;fill-opacity:1"
     d="M 33.5,0 C 15,0 0,15 0,33.5 0,52 15,67.000001 33.5,67.000001 c 1.2,0 2.30039,-0.10117 3.40039,-0.20117 15.1,-1.5 27.19961,-13.100394 29.59961,-27.900394 l -0.0879,-0.08789 C 66.70388,37.043464 66.90038,35.368649 66.90038,33.5 67.00038,15 51.99999,0 33.49999,0 Z m 0,2.59961 c 17.1,0 30.90039,13.90039 30.90039,30.90039 0,1.1 -0.10117,2.099219 -0.20117,3.199219 l 0.0898,0.08789 C 62.74886,52.044523 50.06989,63.899401 34.49995,64.398441 h -1 C 16.39995,64.398441 2.59956,50.5 2.59956,33.5 2.59956,16.4 16.49995,2.59961 33.49995,2.59961 Z"
     id="path839"
     inkscape:connector-curvature="0" /><path
     style="fill:#00002b;fill-opacity:1"
     d="m 33.437939,4.506722 c -7.425,0 -14.85,2.826563 -20.5,8.476562 -11.3,11.3 -11.3,29.7 0,41 5.4,5.399997 12.49961,8.199997 19.59961,8.499997 7.7,0.2 15.50039,-2.6 21.40039,-8.499997 5.3,-5.3 8.1,-12.201172 8.5,-19.201172 l -0.0977,-0.0957 c 0.37234,-7.769744 -2.42684,-15.727622 -8.40235,-21.703125 -5.65,-5.649999 -13.075,-8.476562 -20.5,-8.476562 z"
     id="path841"
     inkscape:connector-curvature="0" /><path
     style="fill:#ffffff"
     inkscape:connector-curvature="0"
     class="st2"
     d="m 33.400439,2.600001 c -17.1,0 -30.9,13.799999 -30.9,30.899999 0,17.1 13.9,30.900001 30.9,30.900001 0.3,0 0.7,0 1,-0.1 15.6,-0.5 28.2,-12.500001 29.8,-27.700001 0.1,-1 0.2,-2.1 0.2,-3.2 -0.1,-17 -13.9,-30.8 -31,-30.799999 z M 53.900439,54 c -5.9,5.900001 -13.7,8.700001 -21.4,8.500001 -7.1,-0.2 -14.2,-3 -19.6,-8.500001 -11.3,-11.3 -11.3,-29.7 0,-41 11.3,-11.299999 29.7,-11.299999 41,0 6,6 8.8,14 8.4,21.8 -0.3,7 -3.1,13.9 -8.4,19.2 z"
     id="path845" /><path
     class="st2"
     d="m 45.096157,23.748108 c -0.589777,0.337016 -1.095301,0.589777 -1.600825,0.926793 -6.824571,-7.330095 -17.019301,-4.88673 -21.063492,1.348064 1.516572,0.842539 3.033143,1.769333 4.465461,2.611873 1.348063,-1.68508 2.948888,-2.780381 5.055238,-3.117397 5.055238,-0.758286 9.015174,2.611872 9.436444,6.908825 0.42127,3.791429 -1.432318,6.908826 -4.88673,8.509651 -0.168508,0.08425 -0.337017,0.252762 -0.337017,0.337016 0,1.685079 0,3.370158 0,5.223746 3.959937,-0.926793 6.824572,-3.033143 8.846667,-6.487556 2.022096,-3.454412 2.190604,-7.077333 1.095302,-10.868761 0.505524,-0.252762 1.011048,-0.589778 1.600825,-0.926795 1.600826,4.886731 1.095302,9.436445 -1.685079,13.649144 -2.780381,4.128444 -6.740317,6.319048 -11.879809,6.824571 0,-1.26381 0,-2.359111 0,-3.538667 0,-1.600825 0.08425,-3.117396 0,-4.633968 0,-0.674032 0.168508,-0.926794 0.842539,-1.095301 4.381207,-1.179555 5.982032,-6.319048 3.201651,-9.773461 -1.600825,-2.022095 -3.791428,-2.780381 -6.319047,-2.106349 -2.527619,0.674031 -4.212699,2.359111 -4.633969,4.970984 -0.505523,3.201652 1.348063,6.234794 4.718223,6.99308 0.505523,0.08425 0.589777,0.337015 0.589777,0.758285 0,3.117397 0,6.15054 0,9.267937 0,0.252761 0,0.505523 0,0.758285 4.296953,0.589779 10.953016,-1.600825 14.828699,-7.161586 3.707174,-5.392255 3.707174,-12.469589 1.095301,-17.18781 -1.516571,0.84254 -2.948889,1.769333 -4.46546,2.611873 1.432317,3.538666 1.516571,6.993079 -0.252762,10.447492 -1.26381,2.443365 -3.201651,4.212699 -5.897778,5.308 0,-0.589778 0,-1.26381 0,-1.769334 0,-0.168508 0.252762,-0.337016 0.42127,-0.505523 3.201651,-2.022096 4.88673,-4.886731 4.88673,-8.762413 -0.08425,-3.959936 -2.780381,-7.582858 -6.571809,-8.846667 -3.201651,-1.095301 -6.15054,-0.674031 -8.846667,1.179555 -0.42127,0.252763 -0.842539,0.926795 -1.179555,0.842541 -0.505525,0 -1.095302,-0.505524 -1.600826,-0.758287 3.454413,-4.465459 12.722349,-5.982031 18.114603,1.26381 1.432318,-0.842539 2.948889,-1.769333 4.549714,-2.696126 -1.348063,-2.022096 -3.033142,-3.707176 -5.055238,-4.970985 -3.370158,-2.190603 -7.077333,-3.033142 -11.037269,-2.611873 -8.425397,0.926794 -14.66019,7.835619 -14.997206,15.839746 -0.337017,8.088381 4.465459,14.154667 10.616,16.598032 0,-0.674032 0,-1.348064 0,-1.937842 0,-1.179555 0,-2.274857 0,-3.454412 0,-0.252762 -0.168508,-0.589777 -0.42127,-0.674032 -4.044191,-2.780381 -5.897778,-8.088381 -4.549715,-12.722349 0,0 0.08425,-0.08425 0.168508,-0.168508 0.505524,0.337016 1.011048,0.589778 1.600826,0.926794 -0.589778,3.033143 -0.252763,5.897778 1.685079,8.341143 0.84254,1.011047 1.937841,1.769333 2.948888,2.611873 0.337017,0.252761 0.421271,0.421269 0.421271,0.842539 0,2.780382 0,5.560762 0,8.341143 0,0.168508 -0.08425,0.42127 -0.08425,0.758286 -0.758285,-0.252762 -1.516571,-0.505524 -2.190602,-0.758286 -3.707175,-1.432318 -6.656064,-3.707175 -8.846667,-6.993079 -1.769334,-2.696127 -2.864635,-5.645016 -3.117397,-8.846667 -0.252762,-2.696127 0,-5.308 0.926794,-7.835619 1.937841,-5.392254 5.560761,-9.352191 10.953016,-11.374285 9.015174,-3.622921 18.70438,-0.08425 23.338349,8.425396 3.62292,6.487556 2.78038,14.997206 -1.937842,20.726476 -3.117396,3.791429 -7.161587,6.15054 -12.048317,6.824572 -1.516571,0.168507 -3.033143,0.08425 -4.633969,0.08425 -0.589777,0 -0.758285,-0.252761 -0.758285,-0.758285 0,-3.20165 0,-6.487556 0.08425,-9.689206 0,-0.42127 -0.168508,-0.674032 -0.505524,-0.84254 -4.128445,-1.937841 -5.813523,-6.15054 -4.296952,-10.447492 0,0 0,-0.08425 0,-0.252762 -1.432317,-0.84254 -2.948889,-1.685079 -4.465461,-2.527619 -0.674031,1.179556 -1.011047,2.359111 -1.179555,3.622921 -0.589778,4.128444 0.42127,7.835619 3.117397,11.037269 0.252761,0.252762 0.505523,0.505524 0.758286,0.758287 0.42127,0.337015 1.011047,0.674031 1.179555,1.095301 0.168508,0.674031 0.08425,1.432318 0.08425,2.190603 -4.212699,-2.443365 -8.088381,-8.172634 -6.99308,-15.334222 0.842541,-5.897778 5.645017,-11.121524 11.795556,-12.469587 6.066286,-1.348064 11.627048,1.095301 14.912952,5.139492 z"
     id="path10-3"
     inkscape:connector-curvature="0"
     style="fill:#ffffff;stroke-width:0.86283934" /></svg>